G04 #@! TF.GenerationSoftware,KiCad,Pcbnew,7.0.1*
G04 #@! TF.CreationDate,2023-03-20T20:32:02+09:00*
G04 #@! TF.ProjectId,usbRS232C,75736252-5332-4333-9243-2e6b69636164,V1.0*
G04 #@! TF.SameCoordinates,Original*
G04 #@! TF.FileFunction,Soldermask,Top*
G04 #@! TF.FilePolarity,Negative*
%FSLAX46Y46*%
G04 Gerber Fmt 4.6, Leading zero omitted, Abs format (unit mm)*
G04 Created by KiCad (PCBNEW 7.0.1) date 2023-03-20 20:32:02*
%MOMM*%
%LPD*%
G01*
G04 APERTURE LIST*
G04 Aperture macros list*
%AMRoundRect*
0 Rectangle with rounded corners*
0 $1 Rounding radius*
0 $2 $3 $4 $5 $6 $7 $8 $9 X,Y pos of 4 corners*
0 Add a 4 corners polygon primitive as box body*
4,1,4,$2,$3,$4,$5,$6,$7,$8,$9,$2,$3,0*
0 Add four circle primitives for the rounded corners*
1,1,$1+$1,$2,$3*
1,1,$1+$1,$4,$5*
1,1,$1+$1,$6,$7*
1,1,$1+$1,$8,$9*
0 Add four rect primitives between the rounded corners*
20,1,$1+$1,$2,$3,$4,$5,0*
20,1,$1+$1,$4,$5,$6,$7,0*
20,1,$1+$1,$6,$7,$8,$9,0*
20,1,$1+$1,$8,$9,$2,$3,0*%
G04 Aperture macros list end*
%ADD10C,1.700000*%
%ADD11O,1.700000X1.700000*%
%ADD12C,2.000000*%
%ADD13RoundRect,0.200000X0.250000X0.200000X-0.250000X0.200000X-0.250000X-0.200000X0.250000X-0.200000X0*%
%ADD14R,0.300000X1.900000*%
%ADD15R,1.400000X0.400000*%
%ADD16R,3.000000X2.000000*%
%ADD17C,3.200000*%
%ADD18R,1.600000X1.600000*%
%ADD19C,1.600000*%
%ADD20R,0.450000X1.700000*%
G04 APERTURE END LIST*
D10*
X-10000000Y2540000D03*
D11*
X-10000000Y0D03*
X-10000000Y-2540000D03*
D12*
X-17200000Y-7200000D03*
D13*
X-9150000Y8600000D03*
X-10850000Y8600000D03*
D14*
X4225000Y-6000000D03*
X3575000Y-6000000D03*
X2925000Y-6000000D03*
X2275000Y-6000000D03*
X1625000Y-6000000D03*
X975000Y-6000000D03*
X325000Y-6000000D03*
X-325000Y-6000000D03*
X-975000Y-6000000D03*
X-1625000Y-6000000D03*
X-2275000Y-6000000D03*
X-2925000Y-6000000D03*
X-3575000Y-6000000D03*
X-4225000Y-6000000D03*
X-4225000Y-13300000D03*
X-3575000Y-13300000D03*
X-2925000Y-13300000D03*
X-2275000Y-13300000D03*
X-1625000Y-13300000D03*
X-975000Y-13300000D03*
X-325000Y-13300000D03*
X325000Y-13300000D03*
X975000Y-13300000D03*
X1625000Y-13300000D03*
X2275000Y-13300000D03*
X2925000Y-13300000D03*
X3575000Y-13300000D03*
X4225000Y-13300000D03*
D13*
X-9150000Y11800000D03*
X-10850000Y11800000D03*
X4150000Y3200000D03*
X2450000Y3200000D03*
D15*
X-15000000Y1600000D03*
X-15000000Y800000D03*
X-15000000Y0D03*
X-15000000Y-800000D03*
X-15000000Y-1600000D03*
D16*
X-17500000Y4000000D03*
X-17500000Y-4000000D03*
D13*
X300000Y0D03*
X-1400000Y0D03*
X-9150000Y-10200000D03*
X-10850000Y-10200000D03*
D17*
X13420000Y-12500000D03*
X13420000Y12500000D03*
D18*
X12000000Y-5540000D03*
D19*
X12000000Y-2770000D03*
X12000000Y0D03*
X12000000Y2770000D03*
X12000000Y5540000D03*
X14840000Y-4155000D03*
X14840000Y-1385000D03*
X14840000Y1385000D03*
X14840000Y4155000D03*
D13*
X-9150000Y-13400000D03*
X-10850000Y-13400000D03*
X-9150000Y-8600000D03*
X-10850000Y-8600000D03*
X300000Y-3200000D03*
X-1400000Y-3200000D03*
D12*
X-17200000Y7200000D03*
D13*
X4150000Y0D03*
X2450000Y0D03*
X-9150000Y10200000D03*
X-10850000Y10200000D03*
X-9150000Y-7000000D03*
X-10850000Y-7000000D03*
D12*
X-14700000Y9700000D03*
D13*
X-9150000Y13400000D03*
X-10850000Y13400000D03*
D20*
X4445000Y12425000D03*
X3175000Y12425000D03*
X1905000Y12425000D03*
X635000Y12425000D03*
X-635000Y12425000D03*
X-1905000Y12425000D03*
X-3175000Y12425000D03*
X-4445000Y12425000D03*
X-4420000Y6825000D03*
X-3150000Y6825000D03*
X-1880000Y6825000D03*
X-610000Y6825000D03*
X660000Y6825000D03*
X1930000Y6825000D03*
X3200000Y6825000D03*
X4470000Y6825000D03*
D13*
X300000Y3200000D03*
X-1400000Y3200000D03*
X4150000Y-3200000D03*
X2450000Y-3200000D03*
X-9150000Y-11800000D03*
X-10850000Y-11800000D03*
X-9150000Y7000000D03*
X-10850000Y7000000D03*
M02*
