G04 #@! TF.GenerationSoftware,KiCad,Pcbnew,7.0.1*
G04 #@! TF.CreationDate,2023-03-20T20:32:02+09:00*
G04 #@! TF.ProjectId,usbRS232C,75736252-5332-4333-9243-2e6b69636164,V1.0*
G04 #@! TF.SameCoordinates,Original*
G04 #@! TF.FileFunction,Copper,L1,Top*
G04 #@! TF.FilePolarity,Positive*
%FSLAX46Y46*%
G04 Gerber Fmt 4.6, Leading zero omitted, Abs format (unit mm)*
G04 Created by KiCad (PCBNEW 7.0.1) date 2023-03-20 20:32:02*
%MOMM*%
%LPD*%
G01*
G04 APERTURE LIST*
G04 Aperture macros list*
%AMRoundRect*
0 Rectangle with rounded corners*
0 $1 Rounding radius*
0 $2 $3 $4 $5 $6 $7 $8 $9 X,Y pos of 4 corners*
0 Add a 4 corners polygon primitive as box body*
4,1,4,$2,$3,$4,$5,$6,$7,$8,$9,$2,$3,0*
0 Add four circle primitives for the rounded corners*
1,1,$1+$1,$2,$3*
1,1,$1+$1,$4,$5*
1,1,$1+$1,$6,$7*
1,1,$1+$1,$8,$9*
0 Add four rect primitives between the rounded corners*
20,1,$1+$1,$2,$3,$4,$5,0*
20,1,$1+$1,$4,$5,$6,$7,0*
20,1,$1+$1,$6,$7,$8,$9,0*
20,1,$1+$1,$8,$9,$2,$3,0*%
G04 Aperture macros list end*
G04 #@! TA.AperFunction,ComponentPad*
%ADD10C,1.700000*%
G04 #@! TD*
G04 #@! TA.AperFunction,ComponentPad*
%ADD11O,1.700000X1.700000*%
G04 #@! TD*
G04 #@! TA.AperFunction,ComponentPad*
%ADD12C,2.000000*%
G04 #@! TD*
G04 #@! TA.AperFunction,SMDPad,CuDef*
%ADD13RoundRect,0.200000X0.250000X0.200000X-0.250000X0.200000X-0.250000X-0.200000X0.250000X-0.200000X0*%
G04 #@! TD*
G04 #@! TA.AperFunction,SMDPad,CuDef*
%ADD14R,0.300000X1.900000*%
G04 #@! TD*
G04 #@! TA.AperFunction,SMDPad,CuDef*
%ADD15R,1.400000X0.400000*%
G04 #@! TD*
G04 #@! TA.AperFunction,ComponentPad*
%ADD16R,3.000000X2.000000*%
G04 #@! TD*
G04 #@! TA.AperFunction,ComponentPad*
%ADD17R,1.600000X1.600000*%
G04 #@! TD*
G04 #@! TA.AperFunction,ComponentPad*
%ADD18C,1.600000*%
G04 #@! TD*
G04 #@! TA.AperFunction,SMDPad,CuDef*
%ADD19R,0.450000X1.700000*%
G04 #@! TD*
G04 #@! TA.AperFunction,ViaPad*
%ADD20C,0.609600*%
G04 #@! TD*
G04 #@! TA.AperFunction,Conductor*
%ADD21C,0.304800*%
G04 #@! TD*
G04 #@! TA.AperFunction,Conductor*
%ADD22C,0.254000*%
G04 #@! TD*
G04 APERTURE END LIST*
D10*
X-10000000Y2540000D03*
D11*
X-10000000Y0D03*
X-10000000Y-2540000D03*
D12*
X-17200000Y-7200000D03*
D13*
X-9150000Y8600000D03*
X-10850000Y8600000D03*
D14*
X4225000Y-6000000D03*
X3575000Y-6000000D03*
X2925000Y-6000000D03*
X2275000Y-6000000D03*
X1625000Y-6000000D03*
X975000Y-6000000D03*
X325000Y-6000000D03*
X-325000Y-6000000D03*
X-975000Y-6000000D03*
X-1625000Y-6000000D03*
X-2275000Y-6000000D03*
X-2925000Y-6000000D03*
X-3575000Y-6000000D03*
X-4225000Y-6000000D03*
X-4225000Y-13300000D03*
X-3575000Y-13300000D03*
X-2925000Y-13300000D03*
X-2275000Y-13300000D03*
X-1625000Y-13300000D03*
X-975000Y-13300000D03*
X-325000Y-13300000D03*
X325000Y-13300000D03*
X975000Y-13300000D03*
X1625000Y-13300000D03*
X2275000Y-13300000D03*
X2925000Y-13300000D03*
X3575000Y-13300000D03*
X4225000Y-13300000D03*
D13*
X-9150000Y11800000D03*
X-10850000Y11800000D03*
X4150000Y3200000D03*
X2450000Y3200000D03*
D15*
X-15000000Y1600000D03*
X-15000000Y800000D03*
X-15000000Y0D03*
X-15000000Y-800000D03*
X-15000000Y-1600000D03*
D16*
X-17500000Y4000000D03*
X-17500000Y-4000000D03*
D13*
X300000Y0D03*
X-1400000Y0D03*
X-9150000Y-10200000D03*
X-10850000Y-10200000D03*
D17*
X12000000Y-5540000D03*
D18*
X12000000Y-2770000D03*
X12000000Y0D03*
X12000000Y2770000D03*
X12000000Y5540000D03*
X14840000Y-4155000D03*
X14840000Y-1385000D03*
X14840000Y1385000D03*
X14840000Y4155000D03*
D13*
X-9150000Y-13400000D03*
X-10850000Y-13400000D03*
X-9150000Y-8600000D03*
X-10850000Y-8600000D03*
X300000Y-3200000D03*
X-1400000Y-3200000D03*
D12*
X-17200000Y7200000D03*
D13*
X4150000Y0D03*
X2450000Y0D03*
X-9150000Y10200000D03*
X-10850000Y10200000D03*
X-9150000Y-7000000D03*
X-10850000Y-7000000D03*
D12*
X-14700000Y9700000D03*
D13*
X-9150000Y13400000D03*
X-10850000Y13400000D03*
D19*
X4445000Y12425000D03*
X3175000Y12425000D03*
X1905000Y12425000D03*
X635000Y12425000D03*
X-635000Y12425000D03*
X-1905000Y12425000D03*
X-3175000Y12425000D03*
X-4445000Y12425000D03*
X-4420000Y6825000D03*
X-3150000Y6825000D03*
X-1880000Y6825000D03*
X-610000Y6825000D03*
X660000Y6825000D03*
X1930000Y6825000D03*
X3200000Y6825000D03*
X4470000Y6825000D03*
D13*
X300000Y3200000D03*
X-1400000Y3200000D03*
X4150000Y-3200000D03*
X2450000Y-3200000D03*
X-9150000Y-11800000D03*
X-10850000Y-11800000D03*
X-9150000Y7000000D03*
X-10850000Y7000000D03*
D20*
X4000000Y-9000000D03*
X15000000Y-10000000D03*
X15000000Y10000000D03*
X-7000000Y-5500000D03*
X1400000Y1600000D03*
X-6000000Y-13500000D03*
X-7000000Y-2500000D03*
X4400000Y9400000D03*
X-12700000Y8100000D03*
X-7500000Y-10200000D03*
X-1000000Y-10200000D03*
X-2800000Y0D03*
X-7500000Y7000000D03*
X2300000Y-7700000D03*
X-13750000Y800000D03*
X-3600000Y-11000000D03*
X-4200000Y-11700000D03*
X-13750000Y-12303D03*
D21*
X-13800000Y-1900000D02*
X-13800000Y-2250000D01*
X-10850000Y8600000D02*
X-12100000Y8600000D01*
X4150000Y3200000D02*
X5350000Y3200000D01*
D22*
X-325000Y-13300000D02*
X-325000Y-14750000D01*
X-4725000Y-14750000D02*
X-2275000Y-14750000D01*
D21*
X-14100000Y-1600000D02*
X-13800000Y-1900000D01*
D22*
X2275000Y-13300000D02*
X2275000Y-14750000D01*
X-2275000Y-13300000D02*
X-2275000Y-14750000D01*
X-2275000Y-14750000D02*
X4825000Y-14750000D01*
D21*
X-10850000Y13400000D02*
X-12100000Y13400000D01*
X-10850000Y-8600000D02*
X-12025000Y-8600000D01*
X-15000000Y-1600000D02*
X-14100000Y-1600000D01*
X3200000Y6825000D02*
X3200000Y8450000D01*
X-10850000Y7000000D02*
X-12100000Y7000000D01*
D22*
X2925000Y-13300000D02*
X2925000Y-14750000D01*
X325000Y-6000000D02*
X325000Y-7500000D01*
D21*
X-10850000Y-10200000D02*
X-12025000Y-10200000D01*
D22*
X-2925000Y-13300000D02*
X-2925000Y-9875000D01*
D21*
X-9150000Y-8600000D02*
X-9700000Y-8600000D01*
X-4200000Y-8600000D02*
X-2925000Y-9875000D01*
X-9700000Y-8600000D02*
X-10000000Y-8300000D01*
X-9150000Y-8600000D02*
X-4200000Y-8600000D01*
X-10000000Y-8300000D02*
X-10000000Y-2540000D01*
D22*
X-975000Y-10225000D02*
X-1000000Y-10200000D01*
D21*
X-9150000Y-11800000D02*
X-9150000Y-10200000D01*
X-9150000Y-10200000D02*
X-7500000Y-10200000D01*
D22*
X-975000Y-13300000D02*
X-975000Y-10225000D01*
D21*
X-9585737Y9400000D02*
X-9955600Y9030137D01*
X-9585737Y7800000D02*
X-6581580Y7800000D01*
X-6581580Y7800000D02*
X-5789580Y8592000D01*
X-9400000Y9400000D02*
X-9585737Y9400000D01*
X-5789580Y8592000D02*
X1892000Y8592000D01*
X1892000Y8592000D02*
X4445000Y11145000D01*
X-9955600Y9030137D02*
X-9955600Y8169863D01*
X-9150000Y10200000D02*
X-9150000Y9650000D01*
X-9955600Y8169863D02*
X-9585737Y7800000D01*
X-9150000Y9650000D02*
X-9400000Y9400000D01*
X4445000Y11145000D02*
X4445000Y12425000D01*
X276000Y9676000D02*
X1905000Y11305000D01*
X-10850000Y10750000D02*
X-10600000Y11000000D01*
X-10850000Y10200000D02*
X-10850000Y10750000D01*
X1905000Y11305000D02*
X1905000Y12425000D01*
X-10600000Y11000000D02*
X-6961460Y11000000D01*
X-6961460Y11000000D02*
X-5637460Y9676000D01*
X-5637460Y9676000D02*
X276000Y9676000D01*
X-316000Y10184000D02*
X635000Y11135000D01*
X-7043040Y11800000D02*
X-5427040Y10184000D01*
X-5427040Y10184000D02*
X-316000Y10184000D01*
X-9150000Y11800000D02*
X-7043040Y11800000D01*
X635000Y11135000D02*
X635000Y12425000D01*
X-7169020Y12644400D02*
X-5216620Y10692000D01*
X-10850000Y12350000D02*
X-10555600Y12644400D01*
X-5216620Y10692000D02*
X-1108000Y10692000D01*
X-10850000Y11800000D02*
X-10850000Y12350000D01*
X-1108000Y10692000D02*
X-635000Y11165000D01*
X-10555600Y12644400D02*
X-7169020Y12644400D01*
X-635000Y11165000D02*
X-635000Y12425000D01*
X-10850000Y-4250000D02*
X-11700000Y-3400000D01*
X-9150000Y7000000D02*
X-7500000Y7000000D01*
X-11700000Y-1700000D02*
X-10000000Y0D01*
X-1400000Y0D02*
X-2800000Y0D01*
X-700000Y4900000D02*
X-1400000Y4200000D01*
X4470000Y6825000D02*
X4470000Y5470000D01*
X3900000Y4900000D02*
X-700000Y4900000D01*
X-11700000Y-3400000D02*
X-11700000Y-1700000D01*
X-1400000Y4200000D02*
X-1400000Y3200000D01*
X-10850000Y-7000000D02*
X-10850000Y-4250000D01*
D22*
X2275000Y-7675000D02*
X2300000Y-7700000D01*
X2275000Y-6000000D02*
X2275000Y-7675000D01*
D21*
X-1400000Y3200000D02*
X-1400000Y-3200000D01*
X4470000Y5470000D02*
X3900000Y4900000D01*
X-6000000Y9100000D02*
X1100000Y9100000D01*
X-6500000Y8600000D02*
X-6000000Y9100000D01*
X3175000Y11175000D02*
X3175000Y12425000D01*
X1100000Y9100000D02*
X3175000Y11175000D01*
X-9150000Y8600000D02*
X-6500000Y8600000D01*
X-7206200Y13400000D02*
X-5006200Y11200000D01*
X-2100000Y11200000D02*
X-1905000Y11395000D01*
X-1905000Y11395000D02*
X-1905000Y12425000D01*
X-5006200Y11200000D02*
X-2100000Y11200000D01*
X-9150000Y13400000D02*
X-7206200Y13400000D01*
X300000Y3200000D02*
X2450000Y3200000D01*
X5400000Y0D02*
X4150000Y0D01*
X5808000Y-408000D02*
X5400000Y0D01*
X1210420Y-11108000D02*
X5010420Y-11108000D01*
D22*
X975000Y-13300000D02*
X975000Y-11343420D01*
D21*
X975000Y-11343420D02*
X1210420Y-11108000D01*
X5010420Y-11108000D02*
X5808000Y-10310420D01*
X5808000Y-10310420D02*
X5808000Y-408000D01*
X300000Y0D02*
X2450000Y0D01*
X5300000Y-10100000D02*
X4800000Y-10600000D01*
X4800000Y-10600000D02*
X1000000Y-10600000D01*
X5300000Y-3500000D02*
X5300000Y-10100000D01*
D22*
X325000Y-13300000D02*
X325000Y-11275000D01*
D21*
X1000000Y-10600000D02*
X325000Y-11275000D01*
X4150000Y-3200000D02*
X5000000Y-3200000D01*
X5000000Y-3200000D02*
X5300000Y-3500000D01*
X2450000Y-3200000D02*
X300000Y-3200000D01*
X-9150000Y-13400000D02*
X-9150000Y-12750000D01*
X-10700000Y-12600000D02*
X-9300000Y-12600000D01*
X-10850000Y-12450000D02*
X-10700000Y-12600000D01*
X-9150000Y-12750000D02*
X-9300000Y-12600000D01*
X-10850000Y-11800000D02*
X-10850000Y-12450000D01*
X-11650000Y-13400000D02*
X-10850000Y-13400000D01*
X-13100000Y-11950000D02*
X-11650000Y-13400000D01*
X-13089600Y-10289600D02*
X-13100000Y-10300000D01*
X-13089600Y1073547D02*
X-13089600Y-10289600D01*
X-13616053Y1600000D02*
X-13089600Y1073547D01*
X-15000000Y1600000D02*
X-13616053Y1600000D01*
X-13100000Y-10300000D02*
X-13100000Y-11950000D01*
D22*
X-3565000Y-11035000D02*
X-3600000Y-11000000D01*
X-3565000Y-13290000D02*
X-3565000Y-11035000D01*
X-3575000Y-13300000D02*
X-3565000Y-13290000D01*
D21*
X-15000000Y800000D02*
X-13750000Y800000D01*
X-13762303Y0D02*
X-13750000Y-12303D01*
D22*
X-4225000Y-11725000D02*
X-4200000Y-11700000D01*
X-4225000Y-13300000D02*
X-4225000Y-11725000D01*
D21*
X-15000000Y0D02*
X-13762303Y0D01*
X5079821Y14138599D02*
X9208000Y10010420D01*
X10462820Y1155600D02*
X12544400Y1155600D01*
X9208000Y10010420D02*
X9208000Y2410420D01*
X-4445000Y12425000D02*
X-4445000Y13455000D01*
X9208000Y2410420D02*
X10462820Y1155600D01*
X12544400Y1155600D02*
X13155600Y544400D01*
X13155600Y544400D02*
X13155600Y-1614400D01*
X-3761401Y14138599D02*
X5079821Y14138599D01*
X13155600Y-1614400D02*
X12000000Y-2770000D01*
X-4445000Y13455000D02*
X-3761401Y14138599D01*
X8700000Y9800000D02*
X8700000Y2200000D01*
X10900000Y0D02*
X12000000Y0D01*
X-3175000Y12425000D02*
X-3175000Y13425000D01*
X4869400Y13630600D02*
X8700000Y9800000D01*
X8700000Y2200000D02*
X10900000Y0D01*
X-2969400Y13630600D02*
X4869400Y13630600D01*
X-3175000Y13425000D02*
X-2969400Y13630600D01*
D22*
X-4225000Y-6000000D02*
X-4225000Y-4775000D01*
D21*
X-7800000Y-4300000D02*
X-4700000Y-4300000D01*
X-9150000Y-7000000D02*
X-9150000Y-5650000D01*
X-9150000Y-5650000D02*
X-7800000Y-4300000D01*
X-4700000Y-4300000D02*
X-4225000Y-4775000D01*
X-5100000Y5800000D02*
X-12214213Y5800000D01*
X-3150000Y6825000D02*
X-3150000Y7979800D01*
X-3150000Y5450000D02*
X-3150000Y6825000D01*
X-3700000Y-3000000D02*
X-3700000Y4900000D01*
X-12214213Y5800000D02*
X-14700000Y8285787D01*
X-5100000Y7931200D02*
X-5100000Y5800000D01*
X-14700000Y8285787D02*
X-14700000Y9700000D01*
X-3254200Y8084000D02*
X-4947200Y8084000D01*
X-3700000Y4900000D02*
X-3150000Y5450000D01*
D22*
X4225000Y-6000000D02*
X4225000Y-4745200D01*
D21*
X-3150000Y7979800D02*
X-3254200Y8084000D01*
X-4947200Y8084000D02*
X-5100000Y7931200D01*
D22*
X4225000Y-4745200D02*
X3666200Y-4186400D01*
D21*
X3666200Y-4186400D02*
X-2513600Y-4186400D01*
X-2513600Y-4186400D02*
X-3700000Y-3000000D01*
X-2724021Y-4694399D02*
X-4420000Y-2998420D01*
X-4420000Y6825000D02*
X-4420000Y5670200D01*
X-4420000Y5200000D02*
X-4512000Y5292000D01*
X-4420000Y-2998420D02*
X-4420000Y5670200D01*
X-13292000Y5292000D02*
X-15200000Y7200000D01*
X-4420000Y5670200D02*
X-4420000Y5200000D01*
X-4512000Y5292000D02*
X-13292000Y5292000D01*
X1394400Y-4694400D02*
X-2724021Y-4694399D01*
X-15200000Y7200000D02*
X-17200000Y7200000D01*
D22*
X1625000Y-6000000D02*
X1625000Y-4925000D01*
X1625000Y-4925000D02*
X1394400Y-4694400D01*
G04 #@! TA.AperFunction,Conductor*
G36*
X-4932140Y-4860436D02*
G01*
X-4900021Y-4881896D01*
X-4804493Y-4977423D01*
X-4783035Y-5009538D01*
X-4775499Y-5047419D01*
X-4775499Y-6226688D01*
X-4775499Y-6981521D01*
X-4760647Y-7075303D01*
X-4760646Y-7075304D01*
X-4703050Y-7188342D01*
X-4613342Y-7278050D01*
X-4500304Y-7335646D01*
X-4406519Y-7350500D01*
X-4043482Y-7350499D01*
X-4043480Y-7350499D01*
X-3980957Y-7340596D01*
X-3949696Y-7335646D01*
X-3944945Y-7333225D01*
X-3900000Y-7322434D01*
X-3855054Y-7333225D01*
X-3850304Y-7335646D01*
X-3756519Y-7350500D01*
X-3393482Y-7350499D01*
X-3393480Y-7350499D01*
X-3330957Y-7340596D01*
X-3299696Y-7335646D01*
X-3294945Y-7333225D01*
X-3250000Y-7322434D01*
X-3205054Y-7333225D01*
X-3200304Y-7335646D01*
X-3106519Y-7350500D01*
X-2743482Y-7350499D01*
X-2743480Y-7350499D01*
X-2680957Y-7340596D01*
X-2649696Y-7335646D01*
X-2644945Y-7333225D01*
X-2600000Y-7322434D01*
X-2555054Y-7333225D01*
X-2550304Y-7335646D01*
X-2456519Y-7350500D01*
X-2093482Y-7350499D01*
X-2093480Y-7350499D01*
X-2030957Y-7340596D01*
X-1999696Y-7335646D01*
X-1994945Y-7333225D01*
X-1950000Y-7322434D01*
X-1905054Y-7333225D01*
X-1900304Y-7335646D01*
X-1806519Y-7350500D01*
X-1443482Y-7350499D01*
X-1443480Y-7350499D01*
X-1380957Y-7340596D01*
X-1349696Y-7335646D01*
X-1344945Y-7333225D01*
X-1300000Y-7322434D01*
X-1255054Y-7333225D01*
X-1250304Y-7335646D01*
X-1156519Y-7350500D01*
X-793482Y-7350499D01*
X-793480Y-7350499D01*
X-730957Y-7340596D01*
X-699696Y-7335646D01*
X-694945Y-7333225D01*
X-650000Y-7322434D01*
X-605054Y-7333225D01*
X-600304Y-7335646D01*
X-506519Y-7350500D01*
X-157284Y-7350499D01*
X-126020Y-7355565D01*
X-97955Y-7370246D01*
X-67087Y-7393354D01*
X67623Y-7443598D01*
X127174Y-7450000D01*
X174999Y-7450000D01*
X175000Y-7449999D01*
X175000Y-7449000D01*
X188263Y-7399500D01*
X224500Y-7363263D01*
X274000Y-7350000D01*
X376000Y-7350000D01*
X425500Y-7363263D01*
X461737Y-7399500D01*
X475000Y-7449000D01*
X475000Y-7449999D01*
X475001Y-7450000D01*
X522826Y-7450000D01*
X582376Y-7443598D01*
X717088Y-7393353D01*
X747950Y-7370248D01*
X776016Y-7355566D01*
X807276Y-7350499D01*
X1156518Y-7350499D01*
X1156520Y-7350499D01*
X1203411Y-7343072D01*
X1250304Y-7335646D01*
X1255054Y-7333225D01*
X1300000Y-7322434D01*
X1344945Y-7333225D01*
X1349696Y-7335646D01*
X1443481Y-7350500D01*
X1534804Y-7350499D01*
X1580810Y-7361838D01*
X1616278Y-7393260D01*
X1633081Y-7437565D01*
X1627370Y-7484604D01*
X1610165Y-7529971D01*
X1589519Y-7700000D01*
X1610164Y-7870026D01*
X1670901Y-8030178D01*
X1768197Y-8171134D01*
X1896402Y-8284715D01*
X1973160Y-8325000D01*
X2048060Y-8364310D01*
X2214361Y-8405300D01*
X2385639Y-8405300D01*
X2551940Y-8364310D01*
X2703599Y-8284714D01*
X2831802Y-8171135D01*
X2929099Y-8030177D01*
X2989835Y-7870029D01*
X3010480Y-7700000D01*
X2989835Y-7529971D01*
X2972628Y-7484601D01*
X2966918Y-7437566D01*
X2983721Y-7393261D01*
X3019188Y-7361839D01*
X3065196Y-7350499D01*
X3106520Y-7350499D01*
X3153411Y-7343072D01*
X3200304Y-7335646D01*
X3205052Y-7333226D01*
X3249997Y-7322434D01*
X3294944Y-7333224D01*
X3299696Y-7335646D01*
X3393481Y-7350500D01*
X3756518Y-7350499D01*
X3756519Y-7350499D01*
X3787780Y-7345547D01*
X3850304Y-7335646D01*
X3855052Y-7333226D01*
X3899997Y-7322434D01*
X3944944Y-7333224D01*
X3949696Y-7335646D01*
X4043481Y-7350500D01*
X4406518Y-7350499D01*
X4406521Y-7350499D01*
X4500303Y-7335647D01*
X4603154Y-7283241D01*
X4651986Y-7272526D01*
X4699827Y-7287038D01*
X4734477Y-7323076D01*
X4747100Y-7371450D01*
X4747100Y-9829975D01*
X4739564Y-9867861D01*
X4718103Y-9899979D01*
X4599977Y-10018104D01*
X4567859Y-10039564D01*
X4529974Y-10047100D01*
X1011117Y-10047100D01*
X1007738Y-10047042D01*
X1005120Y-10046952D01*
X942924Y-10044827D01*
X901561Y-10054907D01*
X891606Y-10056800D01*
X849425Y-10062598D01*
X830889Y-10070649D01*
X814895Y-10076027D01*
X795262Y-10080811D01*
X784936Y-10086617D01*
X758132Y-10101687D01*
X749073Y-10106186D01*
X734905Y-10112340D01*
X710020Y-10123150D01*
X694343Y-10135904D01*
X680392Y-10145398D01*
X662776Y-10155303D01*
X632663Y-10185415D01*
X625142Y-10192203D01*
X592121Y-10219068D01*
X580469Y-10235575D01*
X569595Y-10248483D01*
X-10201Y-10828282D01*
X-92701Y-10910782D01*
X-143495Y-10977764D01*
X-161472Y-11001471D01*
X-175610Y-11037320D01*
X-212005Y-11082843D01*
X-267707Y-11100000D01*
X-348500Y-11100000D01*
X-398000Y-11086737D01*
X-434237Y-11050500D01*
X-447500Y-11001000D01*
X-447500Y-10671999D01*
X-429975Y-10615760D01*
X-370901Y-10530178D01*
X-310164Y-10370026D01*
X-289519Y-10200000D01*
X-310164Y-10029973D01*
X-370901Y-9869821D01*
X-468197Y-9728865D01*
X-596402Y-9615284D01*
X-748058Y-9535690D01*
X-914361Y-9494700D01*
X-1085639Y-9494700D01*
X-1251941Y-9535690D01*
X-1403597Y-9615284D01*
X-1427313Y-9636295D01*
X-1531802Y-9728865D01*
X-1629099Y-9869823D01*
X-1689835Y-10029971D01*
X-1710480Y-10200000D01*
X-1689835Y-10370029D01*
X-1629099Y-10530177D01*
X-1565780Y-10621910D01*
X-1524974Y-10681027D01*
X-1525609Y-10681465D01*
X-1511221Y-10701023D01*
X-1502500Y-10741651D01*
X-1502500Y-11001000D01*
X-1515763Y-11050500D01*
X-1552000Y-11086737D01*
X-1601500Y-11100000D01*
X-2298500Y-11100000D01*
X-2348000Y-11086737D01*
X-2384237Y-11050500D01*
X-2397500Y-11001000D01*
X-2397500Y-10055995D01*
X-2392861Y-10026046D01*
X-2375017Y-9969825D01*
X-2369827Y-9817926D01*
X-2405813Y-9670258D01*
X-2480304Y-9537776D01*
X-3801198Y-8216880D01*
X-3803546Y-8214451D01*
X-3847791Y-8167077D01*
X-3884167Y-8144956D01*
X-3892545Y-8139254D01*
X-3926471Y-8113527D01*
X-3945266Y-8106115D01*
X-3960377Y-8098609D01*
X-3977648Y-8088107D01*
X-3999052Y-8082109D01*
X-4018652Y-8076617D01*
X-4028251Y-8073390D01*
X-4067862Y-8057770D01*
X-4074128Y-8057125D01*
X-4087966Y-8055703D01*
X-4104545Y-8052552D01*
X-4124006Y-8047100D01*
X-4166577Y-8047100D01*
X-4176700Y-8046581D01*
X-4178751Y-8046370D01*
X-4219053Y-8042226D01*
X-4234432Y-8044878D01*
X-4238965Y-8045660D01*
X-4255787Y-8047100D01*
X-8365054Y-8047100D01*
X-8408841Y-8036890D01*
X-8443597Y-8008367D01*
X-8471718Y-7971717D01*
X-8593148Y-7878541D01*
X-8627298Y-7829769D01*
X-8627298Y-7770229D01*
X-8593147Y-7721458D01*
X-8511710Y-7658969D01*
X-8471717Y-7628282D01*
X-8375464Y-7502841D01*
X-8314955Y-7356761D01*
X-8299500Y-7239361D01*
X-8299500Y-6760638D01*
X-8314955Y-6643238D01*
X-8375464Y-6497158D01*
X-8471717Y-6371717D01*
X-8558367Y-6305230D01*
X-8586890Y-6270475D01*
X-8597100Y-6226688D01*
X-8597100Y-5920026D01*
X-8589564Y-5882140D01*
X-8568104Y-5850022D01*
X-7599978Y-4881896D01*
X-7567860Y-4860436D01*
X-7529974Y-4852900D01*
X-4970025Y-4852900D01*
X-4932140Y-4860436D01*
G37*
G04 #@! TD.AperFunction*
G04 #@! TA.AperFunction,Conductor*
G36*
X-10649500Y-9913263D02*
G01*
X-10613263Y-9949500D01*
X-10600000Y-9999000D01*
X-10600000Y-10351000D01*
X-10613263Y-10400500D01*
X-10649500Y-10436737D01*
X-10699000Y-10450000D01*
X-10926000Y-10450000D01*
X-10975500Y-10436737D01*
X-11011737Y-10400500D01*
X-11025000Y-10351000D01*
X-11025000Y-9999000D01*
X-11011737Y-9949500D01*
X-10975500Y-9913263D01*
X-10926000Y-9900000D01*
X-10699000Y-9900000D01*
X-10649500Y-9913263D01*
G37*
G04 #@! TD.AperFunction*
G04 #@! TA.AperFunction,Conductor*
G36*
X-10649500Y-8363263D02*
G01*
X-10613263Y-8399500D01*
X-10600000Y-8449000D01*
X-10600000Y-8826000D01*
X-10613263Y-8875500D01*
X-10649500Y-8911737D01*
X-10699000Y-8925000D01*
X-10926000Y-8925000D01*
X-10975500Y-8911737D01*
X-11011737Y-8875500D01*
X-11025000Y-8826000D01*
X-11025000Y-8449000D01*
X-11011737Y-8399500D01*
X-10975500Y-8363263D01*
X-10926000Y-8350000D01*
X-10699000Y-8350000D01*
X-10649500Y-8363263D01*
G37*
G04 #@! TD.AperFunction*
G04 #@! TA.AperFunction,Conductor*
G36*
X375000Y-5863263D02*
G01*
X411236Y-5899500D01*
X424500Y-5949000D01*
X424501Y-6751000D01*
X411238Y-6800500D01*
X375001Y-6836736D01*
X325501Y-6850000D01*
X324500Y-6850000D01*
X275000Y-6836737D01*
X238764Y-6800500D01*
X225500Y-6751000D01*
X225500Y-6371518D01*
X225499Y-5948998D01*
X238762Y-5899500D01*
X274999Y-5863264D01*
X324499Y-5850000D01*
X325500Y-5850000D01*
X375000Y-5863263D01*
G37*
G04 #@! TD.AperFunction*
G04 #@! TA.AperFunction,Conductor*
G36*
X4350500Y3536737D02*
G01*
X4386737Y3500500D01*
X4400000Y3451000D01*
X4400000Y3450001D01*
X4421004Y3428997D01*
X4442464Y3396879D01*
X4450000Y3358993D01*
X4450000Y3041007D01*
X4442464Y3003121D01*
X4421004Y2971003D01*
X4400000Y2949999D01*
X4400000Y2949000D01*
X4386737Y2899500D01*
X4350500Y2863263D01*
X4301000Y2850000D01*
X3999000Y2850000D01*
X3949500Y2863263D01*
X3913263Y2899500D01*
X3900000Y2949000D01*
X3900000Y3451000D01*
X3913263Y3500500D01*
X3949500Y3536737D01*
X3999000Y3550000D01*
X4301000Y3550000D01*
X4350500Y3536737D01*
G37*
G04 #@! TD.AperFunction*
G04 #@! TA.AperFunction,Conductor*
G36*
X3375500Y7186737D02*
G01*
X3411737Y7150500D01*
X3425000Y7101000D01*
X3425000Y6699000D01*
X3411737Y6649500D01*
X3375500Y6613263D01*
X3326000Y6600000D01*
X3074000Y6600000D01*
X3024500Y6613263D01*
X2988263Y6649500D01*
X2975000Y6699000D01*
X2975000Y7101000D01*
X2988263Y7150500D01*
X3024500Y7186737D01*
X3074000Y7200000D01*
X3326000Y7200000D01*
X3375500Y7186737D01*
G37*
G04 #@! TD.AperFunction*
G04 #@! TA.AperFunction,Conductor*
G36*
X-10649500Y7286737D02*
G01*
X-10613263Y7250500D01*
X-10600000Y7201000D01*
X-10600000Y6849000D01*
X-10613263Y6799500D01*
X-10649500Y6763263D01*
X-10699000Y6750000D01*
X-10926000Y6750000D01*
X-10975500Y6763263D01*
X-11011737Y6799500D01*
X-11025000Y6849000D01*
X-11025000Y7201000D01*
X-11011737Y7250500D01*
X-10975500Y7286737D01*
X-10926000Y7300000D01*
X-10699000Y7300000D01*
X-10649500Y7286737D01*
G37*
G04 #@! TD.AperFunction*
G04 #@! TA.AperFunction,Conductor*
G36*
X-10649500Y8836737D02*
G01*
X-10613263Y8800500D01*
X-10600000Y8751000D01*
X-10600000Y8374000D01*
X-10613263Y8324500D01*
X-10649500Y8288263D01*
X-10699000Y8275000D01*
X-10926000Y8275000D01*
X-10975500Y8288263D01*
X-11011737Y8324500D01*
X-11025000Y8374000D01*
X-11025000Y8751000D01*
X-11011737Y8800500D01*
X-10975500Y8836737D01*
X-10926000Y8850000D01*
X-10699000Y8850000D01*
X-10649500Y8836737D01*
G37*
G04 #@! TD.AperFunction*
G04 #@! TA.AperFunction,Conductor*
G36*
X-10649500Y13736737D02*
G01*
X-10613263Y13700500D01*
X-10600000Y13651000D01*
X-10600000Y13282719D01*
X-10611099Y13237173D01*
X-10641908Y13201839D01*
X-10685519Y13184641D01*
X-10693330Y13183567D01*
X-10706173Y13181802D01*
X-10724714Y13173747D01*
X-10740696Y13168372D01*
X-10760341Y13163586D01*
X-10760915Y13163263D01*
X-10761908Y13162705D01*
X-10810428Y13150000D01*
X-10926000Y13150000D01*
X-10975500Y13163263D01*
X-11011737Y13199500D01*
X-11025000Y13249000D01*
X-11025000Y13651000D01*
X-11011737Y13700500D01*
X-10975500Y13736737D01*
X-10926000Y13750000D01*
X-10699000Y13750000D01*
X-10649500Y13736737D01*
G37*
G04 #@! TD.AperFunction*
G04 #@! TA.AperFunction,Conductor*
G36*
X22004843Y14994223D02*
G01*
X22125822Y14982308D01*
X22144858Y14978522D01*
X22256522Y14944648D01*
X22274451Y14937221D01*
X22377354Y14882219D01*
X22393492Y14871436D01*
X22483690Y14797411D01*
X22497411Y14783690D01*
X22571436Y14693492D01*
X22582219Y14677354D01*
X22637221Y14574451D01*
X22644648Y14556522D01*
X22678522Y14444858D01*
X22682308Y14425822D01*
X22694223Y14304843D01*
X22694700Y14295140D01*
X22694700Y-14295140D01*
X22694223Y-14304843D01*
X22682308Y-14425822D01*
X22678522Y-14444858D01*
X22644648Y-14556522D01*
X22637221Y-14574451D01*
X22582219Y-14677354D01*
X22571436Y-14693492D01*
X22497411Y-14783690D01*
X22483690Y-14797411D01*
X22393492Y-14871436D01*
X22377354Y-14882219D01*
X22274451Y-14937221D01*
X22256522Y-14944648D01*
X22144858Y-14978522D01*
X22125822Y-14982308D01*
X22004843Y-14994223D01*
X21995140Y-14994700D01*
X-11596016Y-14994700D01*
X-11603968Y-14994380D01*
X-11703325Y-14986371D01*
X-11719031Y-14983822D01*
X-11729067Y-14981352D01*
X-11740565Y-14978522D01*
X-11811931Y-14960957D01*
X-11827022Y-14955927D01*
X-11915070Y-14918475D01*
X-11929164Y-14911090D01*
X-11995705Y-14869087D01*
X-12012864Y-14855375D01*
X-18444629Y-8423610D01*
X-18070056Y-8423610D01*
X-18023232Y-8460055D01*
X-17804609Y-8578367D01*
X-17569491Y-8659083D01*
X-17324292Y-8700000D01*
X-17075708Y-8700000D01*
X-16830508Y-8659083D01*
X-16595390Y-8578367D01*
X-16376767Y-8460055D01*
X-16329942Y-8423610D01*
X-17200000Y-7553553D01*
X-18070056Y-8423610D01*
X-18444629Y-8423610D01*
X-19668239Y-7200000D01*
X-18705140Y-7200000D01*
X-18684612Y-7447736D01*
X-18623588Y-7688716D01*
X-18523729Y-7916371D01*
X-18423435Y-8069881D01*
X-17553553Y-7199999D01*
X-16846445Y-7199999D01*
X-15976563Y-8069881D01*
X-15876270Y-7916371D01*
X-15776411Y-7688716D01*
X-15715387Y-7447736D01*
X-15694859Y-7200000D01*
X-15715387Y-6952263D01*
X-15776411Y-6711283D01*
X-15876268Y-6483632D01*
X-15976564Y-6330118D01*
X-16846445Y-7199999D01*
X-17553553Y-7199999D01*
X-18423435Y-6330117D01*
X-18523729Y-6483628D01*
X-18623588Y-6711283D01*
X-18684612Y-6952263D01*
X-18705140Y-7200000D01*
X-19668239Y-7200000D01*
X-20891851Y-5976388D01*
X-18070056Y-5976388D01*
X-17199999Y-6846445D01*
X-16329943Y-5976389D01*
X-16376766Y-5939946D01*
X-16595393Y-5821631D01*
X-16830508Y-5740916D01*
X-17075708Y-5700000D01*
X-17324292Y-5700000D01*
X-17569491Y-5740916D01*
X-17804609Y-5821632D01*
X-18023231Y-5939944D01*
X-18070056Y-5976388D01*
X-20891851Y-5976388D01*
X-21555372Y-5312867D01*
X-21569084Y-5295708D01*
X-21611088Y-5229166D01*
X-21618473Y-5215072D01*
X-21655926Y-5127022D01*
X-21660956Y-5111931D01*
X-21676734Y-5047826D01*
X-19500000Y-5047826D01*
X-19493598Y-5107376D01*
X-19443353Y-5242089D01*
X-19357188Y-5357188D01*
X-19242089Y-5443353D01*
X-19107376Y-5493598D01*
X-19047826Y-5500000D01*
X-17750001Y-5500000D01*
X-17750000Y-5499999D01*
X-17250000Y-5499999D01*
X-17249999Y-5500000D01*
X-15952174Y-5500000D01*
X-15892623Y-5493598D01*
X-15757910Y-5443353D01*
X-15642811Y-5357188D01*
X-15556646Y-5242089D01*
X-15506401Y-5107376D01*
X-15500000Y-5047826D01*
X-15500000Y-4250001D01*
X-15500001Y-4250000D01*
X-17249999Y-4250000D01*
X-17250000Y-4250001D01*
X-17250000Y-5499999D01*
X-17750000Y-5499999D01*
X-17750000Y-4250001D01*
X-17750001Y-4250000D01*
X-19499999Y-4250000D01*
X-19500000Y-4250001D01*
X-19500000Y-5047826D01*
X-21676734Y-5047826D01*
X-21683821Y-5019031D01*
X-21686370Y-5003326D01*
X-21694380Y-4903958D01*
X-21694700Y-4896003D01*
X-21694700Y-3749999D01*
X-19500000Y-3749999D01*
X-19499999Y-3750000D01*
X-17750001Y-3750000D01*
X-17750000Y-3749999D01*
X-17250000Y-3749999D01*
X-17249999Y-3750000D01*
X-15500001Y-3750000D01*
X-15500000Y-3749999D01*
X-15500000Y-2952174D01*
X-15506401Y-2892623D01*
X-15556646Y-2757910D01*
X-15642811Y-2642811D01*
X-15757910Y-2556646D01*
X-15892623Y-2506401D01*
X-15952174Y-2500000D01*
X-17249999Y-2500000D01*
X-17250000Y-2500001D01*
X-17250000Y-3749999D01*
X-17750000Y-3749999D01*
X-17750000Y-2500001D01*
X-17750001Y-2500000D01*
X-19047826Y-2500000D01*
X-19107376Y-2506401D01*
X-19242089Y-2556646D01*
X-19357188Y-2642811D01*
X-19443353Y-2757910D01*
X-19493598Y-2892623D01*
X-19500000Y-2952174D01*
X-19500000Y-3749999D01*
X-21694700Y-3749999D01*
X-21694700Y2952174D01*
X-19500000Y2952174D01*
X-19493598Y2892623D01*
X-19443353Y2757910D01*
X-19357188Y2642811D01*
X-19242089Y2556646D01*
X-19107376Y2506401D01*
X-19047826Y2500000D01*
X-17750001Y2500000D01*
X-17750000Y2500001D01*
X-17250000Y2500001D01*
X-17249999Y2500000D01*
X-15952174Y2500000D01*
X-15892623Y2506401D01*
X-15757910Y2556646D01*
X-15642811Y2642811D01*
X-15556646Y2757910D01*
X-15506401Y2892623D01*
X-15500000Y2952174D01*
X-15500000Y3749999D01*
X-15500001Y3750000D01*
X-17249999Y3750000D01*
X-17250000Y3749999D01*
X-17250000Y2500001D01*
X-17750000Y2500001D01*
X-17750000Y3749999D01*
X-17750001Y3750000D01*
X-19499999Y3750000D01*
X-19500000Y3749999D01*
X-19500000Y2952174D01*
X-21694700Y2952174D01*
X-21694700Y4250001D01*
X-19500000Y4250001D01*
X-19499999Y4250000D01*
X-17750001Y4250000D01*
X-17750000Y4250001D01*
X-17250000Y4250001D01*
X-17249999Y4250000D01*
X-15500001Y4250000D01*
X-15500000Y4250001D01*
X-15500000Y5047826D01*
X-15506401Y5107376D01*
X-15556646Y5242089D01*
X-15642811Y5357188D01*
X-15757910Y5443353D01*
X-15892623Y5493598D01*
X-15952174Y5500000D01*
X-17249999Y5500000D01*
X-17250000Y5499999D01*
X-17250000Y4250001D01*
X-17750000Y4250001D01*
X-17750000Y5499999D01*
X-17750001Y5500000D01*
X-19047826Y5500000D01*
X-19107376Y5493598D01*
X-19242089Y5443353D01*
X-19357188Y5357188D01*
X-19443353Y5242089D01*
X-19493598Y5107376D01*
X-19500000Y5047826D01*
X-19500000Y4250001D01*
X-21694700Y4250001D01*
X-21694700Y4896016D01*
X-21694380Y4903971D01*
X-21686371Y5003326D01*
X-21683822Y5019031D01*
X-21660957Y5111931D01*
X-21655927Y5127022D01*
X-21618475Y5215070D01*
X-21611090Y5229164D01*
X-21569087Y5295705D01*
X-21555375Y5312864D01*
X-19668239Y7200000D01*
X-18605300Y7200000D01*
X-18586134Y6968695D01*
X-18529157Y6743700D01*
X-18529155Y6743696D01*
X-18529155Y6743695D01*
X-18512730Y6706250D01*
X-18435924Y6531151D01*
X-18308979Y6336847D01*
X-18151784Y6166087D01*
X-17968626Y6023530D01*
X-17764501Y5913063D01*
X-17579921Y5849697D01*
X-17544981Y5837702D01*
X-17316049Y5799500D01*
X-17083953Y5799500D01*
X-17083951Y5799500D01*
X-16931329Y5824968D01*
X-16855018Y5837702D01*
X-16635498Y5913063D01*
X-16431373Y6023530D01*
X-16248217Y6166086D01*
X-16091021Y6336846D01*
X-15964073Y6531156D01*
X-15939197Y6587868D01*
X-15902684Y6630980D01*
X-15848536Y6647100D01*
X-15470026Y6647100D01*
X-15432140Y6639564D01*
X-15400022Y6618104D01*
X-13690829Y4908911D01*
X-13688481Y4906480D01*
X-13670772Y4887519D01*
X-13644209Y4859077D01*
X-13609635Y4838051D01*
X-13607828Y4836953D01*
X-13599449Y4831250D01*
X-13565531Y4805529D01*
X-13546735Y4798117D01*
X-13531619Y4790608D01*
X-13514347Y4780105D01*
X-13473344Y4768616D01*
X-13463736Y4765385D01*
X-13424137Y4749769D01*
X-13404030Y4747701D01*
X-13387453Y4744551D01*
X-13367995Y4739100D01*
X-13367994Y4739100D01*
X-13325424Y4739100D01*
X-13315300Y4738581D01*
X-13313050Y4738349D01*
X-13272947Y4734226D01*
X-13256939Y4736986D01*
X-13253035Y4737660D01*
X-13236214Y4739100D01*
X-5071900Y4739100D01*
X-5022400Y4725837D01*
X-4986163Y4689600D01*
X-4972900Y4640100D01*
X-4972900Y-2987302D01*
X-4972957Y-2990680D01*
X-4975172Y-3055493D01*
X-4965085Y-3096884D01*
X-4963201Y-3106799D01*
X-4957402Y-3148993D01*
X-4949629Y-3166886D01*
X-4949354Y-3167520D01*
X-4943970Y-3183527D01*
X-4939187Y-3203161D01*
X-4921866Y-3233963D01*
X-4918322Y-3240267D01*
X-4913811Y-3249346D01*
X-4896850Y-3288399D01*
X-4884091Y-3304080D01*
X-4874596Y-3318031D01*
X-4864695Y-3335643D01*
X-4864694Y-3335644D01*
X-4834592Y-3365746D01*
X-4827800Y-3373271D01*
X-4800932Y-3406298D01*
X-4784422Y-3417950D01*
X-4771515Y-3428821D01*
X-4625180Y-3575156D01*
X-4597626Y-3628336D01*
X-4605781Y-3687676D01*
X-4646664Y-3731452D01*
X-4705308Y-3743639D01*
X-4719051Y-3742226D01*
X-4732282Y-3744507D01*
X-4738965Y-3745660D01*
X-4755787Y-3747100D01*
X-7788894Y-3747100D01*
X-7792275Y-3747042D01*
X-7857074Y-3744827D01*
X-7898436Y-3754907D01*
X-7908393Y-3756800D01*
X-7950574Y-3762598D01*
X-7969102Y-3770646D01*
X-7985104Y-3776027D01*
X-8004741Y-3780812D01*
X-8041849Y-3801677D01*
X-8050926Y-3806186D01*
X-8089979Y-3823150D01*
X-8105653Y-3835902D01*
X-8119607Y-3845399D01*
X-8137224Y-3855305D01*
X-8167332Y-3885413D01*
X-8174858Y-3892204D01*
X-8207878Y-3919068D01*
X-8218039Y-3933464D01*
X-8219525Y-3935569D01*
X-8230402Y-3948483D01*
X-9278096Y-4996177D01*
X-9328786Y-5023271D01*
X-9385986Y-5017637D01*
X-9430415Y-4981174D01*
X-9447100Y-4926173D01*
X-9447100Y-3725023D01*
X-9431596Y-3671830D01*
X-9389938Y-3635298D01*
X-9386082Y-3633500D01*
X-9372361Y-3627102D01*
X-9193123Y-3501598D01*
X-9038402Y-3346877D01*
X-9030536Y-3335644D01*
X-8912896Y-3167636D01*
X-8820426Y-2969334D01*
X-8763792Y-2757973D01*
X-8744722Y-2539999D01*
X-8763792Y-2322026D01*
X-8820426Y-2110665D01*
X-8912896Y-1912364D01*
X-9038399Y-1733126D01*
X-9193126Y-1578399D01*
X-9372363Y-1452896D01*
X-9572172Y-1359724D01*
X-9613829Y-1323193D01*
X-9629333Y-1270000D01*
X-9613829Y-1216807D01*
X-9572172Y-1180276D01*
X-9372363Y-1087103D01*
X-9372362Y-1087102D01*
X-9372361Y-1087102D01*
X-9193123Y-961598D01*
X-9038402Y-806877D01*
X-8912898Y-627639D01*
X-8912897Y-627638D01*
X-8912896Y-627636D01*
X-8820426Y-429334D01*
X-8763792Y-217973D01*
X-8744722Y0D01*
X-8763792Y217973D01*
X-8820426Y429334D01*
X-8912896Y627635D01*
X-8943328Y671096D01*
X-9010633Y767219D01*
X-9038399Y806873D01*
X-9038402Y806877D01*
X-9193123Y961598D01*
X-9372361Y1087102D01*
X-9372363Y1087103D01*
X-9572172Y1180276D01*
X-9613829Y1216807D01*
X-9629333Y1270000D01*
X-9613829Y1323193D01*
X-9572172Y1359724D01*
X-9372363Y1452896D01*
X-9193126Y1578399D01*
X-9038399Y1733126D01*
X-8912896Y1912363D01*
X-8820426Y2110665D01*
X-8763792Y2322026D01*
X-8744723Y2540000D01*
X-8763792Y2757973D01*
X-8820426Y2969334D01*
X-8912896Y3167635D01*
X-8930571Y3192877D01*
X-9038402Y3346877D01*
X-9193123Y3501598D01*
X-9372361Y3627102D01*
X-9505953Y3689397D01*
X-9570665Y3719573D01*
X-9570666Y3719573D01*
X-9570670Y3719575D01*
X-9782023Y3776207D01*
X-10000000Y3795277D01*
X-10217977Y3776207D01*
X-10429330Y3719575D01*
X-10627638Y3627102D01*
X-10806877Y3501598D01*
X-10961598Y3346877D01*
X-11087102Y3167638D01*
X-11179575Y2969330D01*
X-11236207Y2757977D01*
X-11255277Y2540000D01*
X-11236207Y2322023D01*
X-11179575Y2110670D01*
X-11179573Y2110666D01*
X-11179573Y2110665D01*
X-11087103Y1912363D01*
X-11087102Y1912361D01*
X-10961598Y1733123D01*
X-10806877Y1578402D01*
X-10806873Y1578399D01*
X-10627636Y1452896D01*
X-10427827Y1359723D01*
X-10386170Y1323191D01*
X-10370666Y1269999D01*
X-10386170Y1216806D01*
X-10427827Y1180274D01*
X-10429320Y1179577D01*
X-10429330Y1179575D01*
X-10627638Y1087102D01*
X-10806877Y961598D01*
X-10961598Y806877D01*
X-11087102Y627638D01*
X-11179575Y429330D01*
X-11236207Y217977D01*
X-11255277Y0D01*
X-11236207Y-217977D01*
X-11201061Y-349142D01*
X-11201061Y-400384D01*
X-11226684Y-444765D01*
X-12083102Y-1301183D01*
X-12085533Y-1303532D01*
X-12111785Y-1328050D01*
X-12132923Y-1347791D01*
X-12155049Y-1384177D01*
X-12160740Y-1392539D01*
X-12186472Y-1426471D01*
X-12186472Y-1426472D01*
X-12193884Y-1445267D01*
X-12201396Y-1460390D01*
X-12211894Y-1477652D01*
X-12223380Y-1518648D01*
X-12226610Y-1528253D01*
X-12242230Y-1567862D01*
X-12244296Y-1587970D01*
X-12247446Y-1604545D01*
X-12249082Y-1610382D01*
X-12252900Y-1624007D01*
X-12252900Y-1666577D01*
X-12253418Y-1676700D01*
X-12257773Y-1719054D01*
X-12255347Y-1733126D01*
X-12254340Y-1738963D01*
X-12252900Y-1755787D01*
X-12252900Y-3388882D01*
X-12252958Y-3392263D01*
X-12254198Y-3428574D01*
X-12255172Y-3457073D01*
X-12245085Y-3498464D01*
X-12243201Y-3508379D01*
X-12237402Y-3550573D01*
X-12229629Y-3568466D01*
X-12229354Y-3569100D01*
X-12223970Y-3585107D01*
X-12219187Y-3604741D01*
X-12202004Y-3635298D01*
X-12198322Y-3641847D01*
X-12193811Y-3650926D01*
X-12176850Y-3689979D01*
X-12164091Y-3705660D01*
X-12154596Y-3719611D01*
X-12144695Y-3737223D01*
X-12144694Y-3737224D01*
X-12114592Y-3767326D01*
X-12107800Y-3774851D01*
X-12080932Y-3807878D01*
X-12064419Y-3819533D01*
X-12051512Y-3830404D01*
X-11527567Y-4354352D01*
X-11431896Y-4450023D01*
X-11410436Y-4482140D01*
X-11402900Y-4520026D01*
X-11402900Y-6226688D01*
X-11413110Y-6270475D01*
X-11441633Y-6305230D01*
X-11528282Y-6371717D01*
X-11600091Y-6465302D01*
X-11624536Y-6497159D01*
X-11685044Y-6643238D01*
X-11700500Y-6760639D01*
X-11700499Y-7239360D01*
X-11685044Y-7356762D01*
X-11624536Y-7502841D01*
X-11528282Y-7628282D01*
X-11488287Y-7658970D01*
X-11458587Y-7696199D01*
X-11449707Y-7742991D01*
X-11463704Y-7788515D01*
X-11497339Y-7822234D01*
X-11534870Y-7844922D01*
X-11655075Y-7965127D01*
X-11743018Y-8110602D01*
X-11793590Y-8272891D01*
X-11794914Y-8287459D01*
X-11800000Y-8306250D01*
X-11800000Y-8893748D01*
X-11794914Y-8912540D01*
X-11793590Y-8927107D01*
X-11743018Y-9089397D01*
X-11655075Y-9234872D01*
X-11559952Y-9329996D01*
X-11534329Y-9374377D01*
X-11534329Y-9425623D01*
X-11559952Y-9470004D01*
X-11655075Y-9565127D01*
X-11743018Y-9710602D01*
X-11793590Y-9872891D01*
X-11794914Y-9887459D01*
X-11800000Y-9906250D01*
X-11800000Y-10493748D01*
X-11794914Y-10512540D01*
X-11793590Y-10527107D01*
X-11743018Y-10689397D01*
X-11655075Y-10834872D01*
X-11534872Y-10955075D01*
X-11497340Y-10977764D01*
X-11463705Y-11011483D01*
X-11449707Y-11057007D01*
X-11458586Y-11103798D01*
X-11488288Y-11141029D01*
X-11528282Y-11171717D01*
X-11602139Y-11267970D01*
X-11624536Y-11297159D01*
X-11685044Y-11443238D01*
X-11700500Y-11560639D01*
X-11700499Y-11870026D01*
X-11700499Y-12039361D01*
X-11698655Y-12053369D01*
X-11685044Y-12156762D01*
X-11624536Y-12302841D01*
X-11528284Y-12428279D01*
X-11528282Y-12428282D01*
X-11429536Y-12504052D01*
X-11404208Y-12532850D01*
X-11391726Y-12569111D01*
X-11387402Y-12600573D01*
X-11387397Y-12600606D01*
X-11393905Y-12651713D01*
X-11425212Y-12692630D01*
X-11441345Y-12705008D01*
X-11484420Y-12723960D01*
X-11531379Y-12720881D01*
X-11571611Y-12696467D01*
X-12518103Y-11749977D01*
X-12539564Y-11717859D01*
X-12547100Y-11679973D01*
X-12547100Y-10424187D01*
X-12546581Y-10414068D01*
X-12545303Y-10401632D01*
X-12542151Y-10385053D01*
X-12536700Y-10365597D01*
X-12536700Y-10323023D01*
X-12536181Y-10312898D01*
X-12531826Y-10270546D01*
X-12535260Y-10250637D01*
X-12536700Y-10233813D01*
X-12536700Y1062429D01*
X-12536642Y1065810D01*
X-12534427Y1130618D01*
X-12544508Y1171988D01*
X-12546400Y1181943D01*
X-12552198Y1224122D01*
X-12560246Y1242650D01*
X-12565627Y1258649D01*
X-12570413Y1278290D01*
X-12591280Y1315401D01*
X-12595790Y1324480D01*
X-12612750Y1363526D01*
X-12625506Y1379206D01*
X-12635002Y1393159D01*
X-12644904Y1410769D01*
X-12675008Y1440874D01*
X-12681800Y1448400D01*
X-12708666Y1481424D01*
X-12725173Y1493075D01*
X-12738088Y1503953D01*
X-13217234Y1983099D01*
X-13219583Y1985531D01*
X-13263841Y2032921D01*
X-13263844Y2032923D01*
X-13300230Y2055049D01*
X-13308592Y2060740D01*
X-13342524Y2086472D01*
X-13361321Y2093884D01*
X-13376443Y2101396D01*
X-13393705Y2111894D01*
X-13434701Y2123380D01*
X-13444306Y2126610D01*
X-13483915Y2142230D01*
X-13504023Y2144296D01*
X-13520598Y2147446D01*
X-13540059Y2152900D01*
X-13540060Y2152900D01*
X-13582630Y2152900D01*
X-13592753Y2153418D01*
X-13607702Y2154955D01*
X-13635106Y2157773D01*
X-13635106Y2157772D01*
X-13635107Y2157773D01*
X-13655018Y2154339D01*
X-13671840Y2152900D01*
X-14086662Y2152900D01*
X-14131606Y2163690D01*
X-14174696Y2185646D01*
X-14268481Y2200500D01*
X-15731518Y2200499D01*
X-15731521Y2200499D01*
X-15825303Y2185647D01*
X-15868393Y2163691D01*
X-15938342Y2128050D01*
X-16028050Y2038342D01*
X-16085646Y1925304D01*
X-16100500Y1831519D01*
X-16100499Y1588523D01*
X-16100499Y1368478D01*
X-16085647Y1274698D01*
X-16085646Y1274696D01*
X-16077470Y1258649D01*
X-16070487Y1244946D01*
X-16059696Y1199999D01*
X-16070485Y1155057D01*
X-16085646Y1125304D01*
X-16100500Y1031519D01*
X-16100499Y790677D01*
X-16100499Y568478D01*
X-16085647Y474697D01*
X-16070487Y444945D01*
X-16059696Y399998D01*
X-16070487Y355053D01*
X-16085646Y325304D01*
X-16100500Y231519D01*
X-16100499Y-231518D01*
X-16085646Y-325304D01*
X-16070485Y-355056D01*
X-16059696Y-399998D01*
X-16070485Y-444941D01*
X-16085646Y-474696D01*
X-16100500Y-568481D01*
X-16100499Y-1031518D01*
X-16098004Y-1047269D01*
X-16099688Y-1086551D01*
X-16116532Y-1122084D01*
X-16143354Y-1157912D01*
X-16193598Y-1292623D01*
X-16200000Y-1352174D01*
X-16200000Y-1847826D01*
X-16193598Y-1907376D01*
X-16143353Y-2042089D01*
X-16057188Y-2157188D01*
X-15942089Y-2243353D01*
X-15807376Y-2293598D01*
X-15747826Y-2300000D01*
X-15325000Y-2300000D01*
X-14650000Y-2300000D01*
X-14252174Y-2300000D01*
X-14192623Y-2293598D01*
X-14057910Y-2243353D01*
X-13942811Y-2157188D01*
X-13856646Y-2042089D01*
X-13834258Y-1982062D01*
X-13801954Y-1938261D01*
X-13751380Y-1918153D01*
X-13697819Y-1927816D01*
X-13657460Y-1964330D01*
X-13642500Y-2016659D01*
X-13642500Y-10165418D01*
X-13643017Y-10175520D01*
X-13644296Y-10187968D01*
X-13647448Y-10204550D01*
X-13652900Y-10224006D01*
X-13652900Y-10266577D01*
X-13653418Y-10276700D01*
X-13657773Y-10319054D01*
X-13654905Y-10335690D01*
X-13654340Y-10338963D01*
X-13652900Y-10355787D01*
X-13652900Y-11938882D01*
X-13652957Y-11942260D01*
X-13655172Y-12007073D01*
X-13645085Y-12048464D01*
X-13643201Y-12058379D01*
X-13637402Y-12100573D01*
X-13632587Y-12111658D01*
X-13629354Y-12119100D01*
X-13623970Y-12135107D01*
X-13619187Y-12154741D01*
X-13602205Y-12184941D01*
X-13598322Y-12191847D01*
X-13593811Y-12200926D01*
X-13576850Y-12239979D01*
X-13564091Y-12255660D01*
X-13554596Y-12269611D01*
X-13544695Y-12287223D01*
X-13544694Y-12287224D01*
X-13514592Y-12317326D01*
X-13507800Y-12324851D01*
X-13480932Y-12357878D01*
X-13464422Y-12369530D01*
X-13451515Y-12380401D01*
X-12048788Y-13783129D01*
X-12046467Y-13785532D01*
X-12002209Y-13832923D01*
X-11965827Y-13855046D01*
X-11957448Y-13860748D01*
X-11923529Y-13886472D01*
X-11904729Y-13893885D01*
X-11889615Y-13901392D01*
X-11872347Y-13911894D01*
X-11831338Y-13923383D01*
X-11821757Y-13926605D01*
X-11782138Y-13942230D01*
X-11762030Y-13944296D01*
X-11745452Y-13947447D01*
X-11725994Y-13952900D01*
X-11683423Y-13952900D01*
X-11673300Y-13953419D01*
X-11656115Y-13955185D01*
X-11630946Y-13957773D01*
X-11630945Y-13957772D01*
X-11620671Y-13958829D01*
X-11582518Y-13970878D01*
X-11552252Y-13997042D01*
X-11528282Y-14028282D01*
X-11402841Y-14124536D01*
X-11256762Y-14185044D01*
X-11139361Y-14200500D01*
X-10560640Y-14200499D01*
X-10560638Y-14200499D01*
X-10443238Y-14185044D01*
X-10397170Y-14165962D01*
X-10297159Y-14124536D01*
X-10256406Y-14093265D01*
X-10171717Y-14028282D01*
X-10078542Y-13906852D01*
X-10029770Y-13872701D01*
X-9970230Y-13872701D01*
X-9921458Y-13906851D01*
X-9828282Y-14028282D01*
X-9702841Y-14124536D01*
X-9556762Y-14185044D01*
X-9439361Y-14200500D01*
X-8860640Y-14200499D01*
X-8860638Y-14200499D01*
X-8743238Y-14185044D01*
X-8697170Y-14165962D01*
X-8597159Y-14124536D01*
X-8556406Y-14093265D01*
X-8471717Y-14028282D01*
X-8375464Y-13902841D01*
X-8314955Y-13756761D01*
X-8299500Y-13639361D01*
X-8299500Y-13160638D01*
X-8314955Y-13043238D01*
X-8375464Y-12897158D01*
X-8471717Y-12771717D01*
X-8570461Y-12695949D01*
X-8595788Y-12667153D01*
X-8608271Y-12630892D01*
X-8612601Y-12599399D01*
X-8606096Y-12548290D01*
X-8574793Y-12507374D01*
X-8471718Y-12428282D01*
X-8471716Y-12428280D01*
X-8471715Y-12428279D01*
X-8375464Y-12302841D01*
X-8314955Y-12156761D01*
X-8299500Y-12039361D01*
X-8299500Y-11560638D01*
X-8314955Y-11443238D01*
X-8375464Y-11297158D01*
X-8471717Y-11171717D01*
X-8558367Y-11105230D01*
X-8586890Y-11070475D01*
X-8597100Y-11026688D01*
X-8597100Y-10973312D01*
X-8586890Y-10929525D01*
X-8558367Y-10894770D01*
X-8471718Y-10828282D01*
X-8447975Y-10797339D01*
X-8443596Y-10791632D01*
X-8408842Y-10763110D01*
X-8365055Y-10752900D01*
X-7977056Y-10752900D01*
X-7941950Y-10759333D01*
X-7911407Y-10777798D01*
X-7903600Y-10784714D01*
X-7824003Y-10826488D01*
X-7751940Y-10864310D01*
X-7585639Y-10905300D01*
X-7414361Y-10905300D01*
X-7248060Y-10864310D01*
X-7191966Y-10834870D01*
X-7096402Y-10784715D01*
X-6968197Y-10671134D01*
X-6870901Y-10530178D01*
X-6810164Y-10370026D01*
X-6789519Y-10199999D01*
X-6810164Y-10029973D01*
X-6870901Y-9869821D01*
X-6968197Y-9728865D01*
X-7096402Y-9615284D01*
X-7248058Y-9535690D01*
X-7414361Y-9494700D01*
X-7585639Y-9494700D01*
X-7751941Y-9535690D01*
X-7903600Y-9615285D01*
X-7911407Y-9622202D01*
X-7941950Y-9640667D01*
X-7977056Y-9647100D01*
X-8365054Y-9647100D01*
X-8408841Y-9636890D01*
X-8443597Y-9608367D01*
X-8471720Y-9571715D01*
X-8593147Y-9478542D01*
X-8627298Y-9429770D01*
X-8627298Y-9370230D01*
X-8593147Y-9321458D01*
X-8471720Y-9228284D01*
X-8443597Y-9191633D01*
X-8408841Y-9163110D01*
X-8365054Y-9152900D01*
X-4470026Y-9152900D01*
X-4432140Y-9160436D01*
X-4400022Y-9181896D01*
X-3481496Y-10100422D01*
X-3460036Y-10132540D01*
X-3452500Y-10170426D01*
X-3452500Y-10195700D01*
X-3465763Y-10245200D01*
X-3502000Y-10281437D01*
X-3551500Y-10294700D01*
X-3685639Y-10294700D01*
X-3851941Y-10335690D01*
X-4003597Y-10415284D01*
X-4131802Y-10528865D01*
X-4224133Y-10662629D01*
X-4229099Y-10669823D01*
X-4289835Y-10829971D01*
X-4301923Y-10929525D01*
X-4302346Y-10933011D01*
X-4326521Y-10986727D01*
X-4376930Y-11017201D01*
X-4451942Y-11035690D01*
X-4552867Y-11088660D01*
X-4598874Y-11100000D01*
X-4600000Y-11100000D01*
X-4600000Y-11100001D01*
X-4610254Y-11110255D01*
X-4633351Y-11141644D01*
X-4731801Y-11228863D01*
X-4778943Y-11297159D01*
X-4829099Y-11369823D01*
X-4889835Y-11529971D01*
X-4910480Y-11700000D01*
X-4889835Y-11870029D01*
X-4829099Y-12030177D01*
X-4809620Y-12058397D01*
X-4770025Y-12115760D01*
X-4752500Y-12171999D01*
X-4752500Y-12184941D01*
X-4758321Y-12209187D01*
X-4758193Y-12209208D01*
X-4760645Y-12224695D01*
X-4760646Y-12224696D01*
X-4775500Y-12318481D01*
X-4775499Y-13373510D01*
X-4775499Y-14281521D01*
X-4760647Y-14375303D01*
X-4760646Y-14375304D01*
X-4703050Y-14488342D01*
X-4628993Y-14562398D01*
X-4607536Y-14594513D01*
X-4601837Y-14623161D01*
X-4600000Y-14624999D01*
X-4600000Y-14625000D01*
X-4544966Y-14625000D01*
X-4501230Y-14635499D01*
X-4500304Y-14635645D01*
X-4500304Y-14635646D01*
X-4406519Y-14650500D01*
X-4043482Y-14650499D01*
X-4043478Y-14650499D01*
X-3948765Y-14635499D01*
X-3905034Y-14625000D01*
X-3894966Y-14625000D01*
X-3851230Y-14635499D01*
X-3850304Y-14635645D01*
X-3850304Y-14635646D01*
X-3756519Y-14650500D01*
X-3393482Y-14650499D01*
X-3393478Y-14650499D01*
X-3298765Y-14635499D01*
X-3255034Y-14625000D01*
X-3244966Y-14625000D01*
X-3201230Y-14635499D01*
X-3200304Y-14635645D01*
X-3200304Y-14635646D01*
X-3106519Y-14650500D01*
X-2757284Y-14650499D01*
X-2726020Y-14655565D01*
X-2697955Y-14670246D01*
X-2667087Y-14693354D01*
X-2532376Y-14743598D01*
X-2472826Y-14750000D01*
X-2425001Y-14750000D01*
X-2425000Y-14749999D01*
X-2425000Y-14724000D01*
X-2411737Y-14674500D01*
X-2375500Y-14638263D01*
X-2326000Y-14625000D01*
X-2224000Y-14625000D01*
X-2174500Y-14638263D01*
X-2138263Y-14674500D01*
X-2125000Y-14724000D01*
X-2125000Y-14749999D01*
X-2124999Y-14750000D01*
X-2077174Y-14750000D01*
X-2017623Y-14743598D01*
X-1882912Y-14693354D01*
X-1852045Y-14670246D01*
X-1823980Y-14655565D01*
X-1792720Y-14650499D01*
X-1443482Y-14650499D01*
X-1443479Y-14650499D01*
X-1348765Y-14635499D01*
X-1305034Y-14625000D01*
X-1294966Y-14625000D01*
X-1251230Y-14635499D01*
X-1250304Y-14635645D01*
X-1250304Y-14635646D01*
X-1156519Y-14650500D01*
X-807284Y-14650499D01*
X-776020Y-14655565D01*
X-747955Y-14670246D01*
X-717087Y-14693354D01*
X-582376Y-14743598D01*
X-522826Y-14750000D01*
X-475001Y-14750000D01*
X-475000Y-14749999D01*
X-475000Y-14724000D01*
X-461737Y-14674500D01*
X-425500Y-14638263D01*
X-376000Y-14625000D01*
X-274000Y-14625000D01*
X-224500Y-14638263D01*
X-188263Y-14674500D01*
X-175000Y-14724000D01*
X-175000Y-14749999D01*
X-174999Y-14750000D01*
X-127174Y-14750000D01*
X-67623Y-14743598D01*
X67088Y-14693353D01*
X97950Y-14670248D01*
X126016Y-14655566D01*
X157276Y-14650499D01*
X506518Y-14650499D01*
X506521Y-14650499D01*
X601234Y-14635499D01*
X644966Y-14625000D01*
X655034Y-14625000D01*
X698769Y-14635499D01*
X699695Y-14635645D01*
X699696Y-14635646D01*
X793481Y-14650500D01*
X1156518Y-14650499D01*
X1156521Y-14650499D01*
X1251234Y-14635499D01*
X1294966Y-14625000D01*
X1305034Y-14625000D01*
X1348769Y-14635499D01*
X1349695Y-14635645D01*
X1349696Y-14635646D01*
X1443481Y-14650500D01*
X1792714Y-14650499D01*
X1823978Y-14655565D01*
X1852043Y-14670246D01*
X1882910Y-14693353D01*
X2017623Y-14743598D01*
X2077174Y-14750000D01*
X2124999Y-14750000D01*
X2125000Y-14749999D01*
X2125000Y-14724000D01*
X2138263Y-14674500D01*
X2174500Y-14638263D01*
X2224000Y-14625000D01*
X2326000Y-14625000D01*
X2375500Y-14638263D01*
X2411737Y-14674500D01*
X2425000Y-14724000D01*
X2425000Y-14749999D01*
X2425001Y-14750000D01*
X2472826Y-14750000D01*
X2532376Y-14743598D01*
X2565401Y-14731280D01*
X2600000Y-14725037D01*
X2634599Y-14731280D01*
X2667623Y-14743598D01*
X2727174Y-14750000D01*
X2774999Y-14750000D01*
X2775000Y-14749999D01*
X2775000Y-14724000D01*
X2788263Y-14674500D01*
X2824500Y-14638263D01*
X2874000Y-14625000D01*
X2976000Y-14625000D01*
X3025500Y-14638263D01*
X3061737Y-14674500D01*
X3075000Y-14724000D01*
X3075000Y-14749999D01*
X3075001Y-14750000D01*
X3122826Y-14750000D01*
X3182376Y-14743598D01*
X3317088Y-14693353D01*
X3347950Y-14670248D01*
X3376016Y-14655566D01*
X3407276Y-14650499D01*
X3756518Y-14650499D01*
X3756521Y-14650499D01*
X3851234Y-14635499D01*
X3894966Y-14625000D01*
X3905034Y-14625000D01*
X3948769Y-14635499D01*
X3949695Y-14635645D01*
X3949696Y-14635646D01*
X4043481Y-14650500D01*
X4406518Y-14650499D01*
X4406521Y-14650499D01*
X4501234Y-14635499D01*
X4544966Y-14625000D01*
X4549999Y-14625000D01*
X4550000Y-14625000D01*
X4550000Y-14624999D01*
X4568832Y-14606167D01*
X4593889Y-14587961D01*
X4613342Y-14578050D01*
X4703050Y-14488342D01*
X4760646Y-14375304D01*
X4775500Y-14281519D01*
X4775499Y-12569772D01*
X11510878Y-12569772D01*
X11541381Y-12846995D01*
X11611926Y-13116833D01*
X11721002Y-13373510D01*
X11866297Y-13611584D01*
X12009033Y-13783100D01*
X12044699Y-13825957D01*
X12052474Y-13832923D01*
X12252414Y-14012071D01*
X12485021Y-14165962D01*
X12737541Y-14284338D01*
X12737542Y-14284338D01*
X12737548Y-14284341D01*
X13004622Y-14364691D01*
X13280550Y-14405300D01*
X13489627Y-14405300D01*
X13489628Y-14405300D01*
X13698156Y-14390038D01*
X13970383Y-14329396D01*
X14230880Y-14229765D01*
X14474095Y-14093266D01*
X14694843Y-13922810D01*
X14705368Y-13911893D01*
X14888417Y-13722033D01*
X14947564Y-13639361D01*
X15050701Y-13495202D01*
X15178226Y-13247165D01*
X15268277Y-12983203D01*
X15318935Y-12708942D01*
X15329121Y-12430228D01*
X15298618Y-12153002D01*
X15228075Y-11883171D01*
X15118996Y-11626486D01*
X14973705Y-11388419D01*
X14958229Y-11369823D01*
X14795302Y-11174044D01*
X14587585Y-10987928D01*
X14354978Y-10834037D01*
X14102458Y-10715661D01*
X14102453Y-10715659D01*
X14102452Y-10715659D01*
X13835378Y-10635309D01*
X13835376Y-10635308D01*
X13835374Y-10635308D01*
X13632161Y-10605401D01*
X13559450Y-10594700D01*
X13350372Y-10594700D01*
X13308666Y-10597752D01*
X13141840Y-10609962D01*
X12869622Y-10670602D01*
X12609116Y-10770236D01*
X12365904Y-10906734D01*
X12145155Y-11077190D01*
X11951582Y-11277966D01*
X11789298Y-11504798D01*
X11661774Y-11752833D01*
X11621794Y-11870026D01*
X11575041Y-12007073D01*
X11571722Y-12016801D01*
X11521065Y-12291055D01*
X11510878Y-12569772D01*
X4775499Y-12569772D01*
X4775499Y-12318482D01*
X4775499Y-12318480D01*
X4775499Y-12318478D01*
X4760647Y-12224696D01*
X4703051Y-12111660D01*
X4703050Y-12111658D01*
X4613342Y-12021950D01*
X4613339Y-12021948D01*
X4604054Y-12017217D01*
X4564588Y-11980735D01*
X4550000Y-11929008D01*
X4550000Y-11759900D01*
X4563263Y-11710400D01*
X4599500Y-11674163D01*
X4649000Y-11660900D01*
X4999302Y-11660900D01*
X5002680Y-11660957D01*
X5017124Y-11661451D01*
X5067489Y-11663172D01*
X5067489Y-11663171D01*
X5067493Y-11663172D01*
X5108884Y-11653085D01*
X5118799Y-11651201D01*
X5160993Y-11645402D01*
X5179519Y-11637354D01*
X5195527Y-11631970D01*
X5215161Y-11627187D01*
X5252265Y-11606322D01*
X5261346Y-11601811D01*
X5300399Y-11584850D01*
X5316080Y-11572091D01*
X5330031Y-11562596D01*
X5347643Y-11552695D01*
X5377746Y-11522591D01*
X5385260Y-11515809D01*
X5418298Y-11488932D01*
X5429954Y-11472417D01*
X5440818Y-11459518D01*
X6191114Y-10709222D01*
X6193518Y-10706901D01*
X6204018Y-10697095D01*
X6240923Y-10662629D01*
X6263049Y-10626242D01*
X6268750Y-10617867D01*
X6270348Y-10615760D01*
X6294471Y-10583950D01*
X6301883Y-10565151D01*
X6309390Y-10550038D01*
X6319894Y-10532767D01*
X6331382Y-10491761D01*
X6334610Y-10482163D01*
X6337435Y-10475000D01*
X6350230Y-10442558D01*
X6352296Y-10422452D01*
X6355446Y-10405876D01*
X6360900Y-10386414D01*
X6360900Y-10343844D01*
X6361419Y-10333719D01*
X6365773Y-10291367D01*
X6362340Y-10271458D01*
X6360900Y-10254634D01*
X6360900Y-6371521D01*
X10799500Y-6371521D01*
X10814352Y-6465303D01*
X10871948Y-6578339D01*
X10871950Y-6578342D01*
X10961658Y-6668050D01*
X11074696Y-6725646D01*
X11168481Y-6740500D01*
X12831518Y-6740499D01*
X12831521Y-6740499D01*
X12925303Y-6725647D01*
X12979707Y-6697925D01*
X13038342Y-6668050D01*
X13128050Y-6578342D01*
X13185646Y-6465304D01*
X13200500Y-6371519D01*
X13200499Y-4708482D01*
X13200499Y-4708480D01*
X13200499Y-4708478D01*
X13185647Y-4614696D01*
X13128051Y-4501660D01*
X13128050Y-4501658D01*
X13038342Y-4411950D01*
X12925304Y-4354354D01*
X12925303Y-4354353D01*
X12925302Y-4354353D01*
X12831519Y-4339500D01*
X11168478Y-4339500D01*
X11074696Y-4354352D01*
X10961660Y-4411948D01*
X10871949Y-4501659D01*
X10814353Y-4614697D01*
X10799500Y-4708480D01*
X10799500Y-6371521D01*
X6360900Y-6371521D01*
X6360900Y-4155000D01*
X13634357Y-4155000D01*
X13654885Y-4376536D01*
X13711764Y-4576446D01*
X13715772Y-4590530D01*
X13814940Y-4789686D01*
X13814941Y-4789687D01*
X13814942Y-4789689D01*
X13949019Y-4967236D01*
X14113438Y-5117124D01*
X14302599Y-5234247D01*
X14510060Y-5314618D01*
X14510063Y-5314619D01*
X14728755Y-5355500D01*
X14728757Y-5355500D01*
X14951243Y-5355500D01*
X14951245Y-5355500D01*
X15169936Y-5314619D01*
X15169937Y-5314618D01*
X15169940Y-5314618D01*
X15377401Y-5234247D01*
X15566562Y-5117124D01*
X15730981Y-4967236D01*
X15865058Y-4789689D01*
X15964229Y-4590528D01*
X16025115Y-4376536D01*
X16045643Y-4155000D01*
X16025115Y-3933464D01*
X15964229Y-3719472D01*
X15865058Y-3520311D01*
X15730981Y-3342764D01*
X15566562Y-3192876D01*
X15377401Y-3075753D01*
X15377399Y-3075752D01*
X15169936Y-2995380D01*
X14951245Y-2954500D01*
X14951243Y-2954500D01*
X14728757Y-2954500D01*
X14728755Y-2954500D01*
X14510063Y-2995380D01*
X14302600Y-3075752D01*
X14113436Y-3192877D01*
X13949020Y-3342763D01*
X13814940Y-3520313D01*
X13715772Y-3719469D01*
X13715771Y-3719472D01*
X13654885Y-3933464D01*
X13634357Y-4155000D01*
X6360900Y-4155000D01*
X6360900Y-419117D01*
X6360958Y-415737D01*
X6363172Y-350927D01*
X6353090Y-309557D01*
X6351197Y-299595D01*
X6345402Y-257427D01*
X6337351Y-238893D01*
X6331971Y-222894D01*
X6330772Y-217973D01*
X6327187Y-203259D01*
X6306319Y-166146D01*
X6301811Y-157070D01*
X6284850Y-118022D01*
X6284850Y-118021D01*
X6272089Y-102336D01*
X6262603Y-88398D01*
X6252695Y-70776D01*
X6222576Y-40657D01*
X6215803Y-33151D01*
X6188932Y-122D01*
X6188759Y0D01*
X6181827Y4892D01*
X6172426Y11528D01*
X6159519Y22398D01*
X5798788Y383129D01*
X5796467Y385533D01*
X5782957Y399999D01*
X5752209Y432923D01*
X5715824Y455047D01*
X5707448Y460748D01*
X5673529Y486472D01*
X5654729Y493885D01*
X5639615Y501392D01*
X5622347Y511894D01*
X5581338Y523383D01*
X5571757Y526605D01*
X5532138Y542230D01*
X5512030Y544296D01*
X5495452Y547447D01*
X5475994Y552900D01*
X5475993Y552900D01*
X5433423Y552900D01*
X5423299Y553418D01*
X5380946Y557773D01*
X5361034Y554339D01*
X5344213Y552900D01*
X4934946Y552900D01*
X4891159Y563110D01*
X4856403Y591633D01*
X4828282Y628282D01*
X4702841Y724536D01*
X4556762Y785044D01*
X4439361Y800500D01*
X3860640Y800499D01*
X3860638Y800499D01*
X3786028Y790677D01*
X3743238Y785044D01*
X3597159Y724536D01*
X3572090Y705300D01*
X3471717Y628282D01*
X3378542Y506852D01*
X3329770Y472701D01*
X3270230Y472701D01*
X3221458Y506852D01*
X3206296Y526611D01*
X3128282Y628282D01*
X3002841Y724536D01*
X2856762Y785044D01*
X2739361Y800500D01*
X2160640Y800499D01*
X2160638Y800499D01*
X2086028Y790677D01*
X2043238Y785044D01*
X1897159Y724536D01*
X1872090Y705300D01*
X1771720Y628284D01*
X1771719Y628282D01*
X1771718Y628282D01*
X1743597Y591633D01*
X1708841Y563110D01*
X1665054Y552900D01*
X1084946Y552900D01*
X1041159Y563110D01*
X1006403Y591633D01*
X978282Y628282D01*
X852841Y724536D01*
X706762Y785044D01*
X589361Y800500D01*
X10640Y800499D01*
X10638Y800499D01*
X-63972Y790677D01*
X-106762Y785044D01*
X-252841Y724536D01*
X-378282Y628282D01*
X-456296Y526611D01*
X-471458Y506852D01*
X-520230Y472701D01*
X-579770Y472701D01*
X-628542Y506852D01*
X-721717Y628282D01*
X-808367Y694770D01*
X-836890Y729525D01*
X-847100Y773312D01*
X-847100Y2426688D01*
X-836890Y2470475D01*
X-808367Y2505230D01*
X-721717Y2571717D01*
X-628542Y2693147D01*
X-579770Y2727298D01*
X-520230Y2727298D01*
X-471458Y2693147D01*
X-378282Y2571717D01*
X-252841Y2475464D01*
X-106761Y2414955D01*
X10638Y2399500D01*
X10639Y2399500D01*
X589361Y2399500D01*
X706761Y2414955D01*
X852841Y2475464D01*
X978279Y2571715D01*
X978281Y2571717D01*
X978282Y2571718D01*
X1006404Y2608368D01*
X1041159Y2636890D01*
X1084946Y2647100D01*
X1665054Y2647100D01*
X1708841Y2636890D01*
X1743597Y2608367D01*
X1771720Y2571715D01*
X1897158Y2475464D01*
X2043238Y2414955D01*
X2160638Y2399500D01*
X2160639Y2399500D01*
X2739361Y2399500D01*
X2856761Y2414955D01*
X3002841Y2475464D01*
X3128280Y2571716D01*
X3158970Y2611711D01*
X3196200Y2641412D01*
X3242991Y2650291D01*
X3288514Y2636295D01*
X3322233Y2602661D01*
X3344922Y2565129D01*
X3465127Y2444924D01*
X3610602Y2356981D01*
X3772892Y2306409D01*
X3787463Y2305085D01*
X3806252Y2300000D01*
X3825000Y2300000D01*
X4475000Y2300000D01*
X4493749Y2300000D01*
X4512536Y2305085D01*
X4527106Y2306409D01*
X4689397Y2356981D01*
X4834872Y2444924D01*
X4955075Y2565127D01*
X5043018Y2710602D01*
X5093590Y2872891D01*
X5094914Y2887459D01*
X5100000Y2906250D01*
X5100000Y3493748D01*
X5094914Y3512540D01*
X5093590Y3527107D01*
X5043018Y3689397D01*
X4955075Y3834872D01*
X4834872Y3955075D01*
X4689397Y4043018D01*
X4527107Y4093590D01*
X4512541Y4094914D01*
X4493749Y4100000D01*
X4475000Y4100000D01*
X3825000Y4100000D01*
X3806250Y4100000D01*
X3787459Y4094914D01*
X3772892Y4093590D01*
X3610602Y4043018D01*
X3465127Y3955075D01*
X3344922Y3834870D01*
X3322234Y3797339D01*
X3288515Y3763704D01*
X3242991Y3749707D01*
X3196199Y3758587D01*
X3158970Y3788287D01*
X3128282Y3828282D01*
X3128279Y3828284D01*
X3066154Y3875954D01*
X3002841Y3924536D01*
X2856762Y3985044D01*
X2739361Y4000500D01*
X2160640Y4000499D01*
X2160638Y4000499D01*
X2043238Y3985044D01*
X1897159Y3924536D01*
X1858367Y3894770D01*
X1771720Y3828284D01*
X1743597Y3791633D01*
X1708841Y3763110D01*
X1665054Y3752900D01*
X1084946Y3752900D01*
X1041159Y3763110D01*
X1006403Y3791633D01*
X1002025Y3797339D01*
X978282Y3828282D01*
X852841Y3924536D01*
X706762Y3985044D01*
X589361Y4000500D01*
X10640Y4000499D01*
X10638Y4000499D01*
X-67627Y3990195D01*
X-106762Y3985044D01*
X-252841Y3924536D01*
X-378282Y3828282D01*
X-461774Y3719472D01*
X-471458Y3706852D01*
X-520230Y3672701D01*
X-579770Y3672701D01*
X-628542Y3706852D01*
X-638226Y3719472D01*
X-661425Y3749707D01*
X-721717Y3828282D01*
X-783844Y3875954D01*
X-816607Y3920636D01*
X-820230Y3975923D01*
X-793581Y4024499D01*
X-499978Y4318103D01*
X-467860Y4339564D01*
X-429974Y4347100D01*
X3888882Y4347100D01*
X3892260Y4347042D01*
X3894555Y4346963D01*
X3957071Y4344827D01*
X3998441Y4354908D01*
X4008396Y4356800D01*
X4050575Y4362598D01*
X4069103Y4370646D01*
X4085102Y4376027D01*
X4104743Y4380813D01*
X4141854Y4401680D01*
X4150933Y4406190D01*
X4189979Y4423150D01*
X4205659Y4435906D01*
X4219612Y4445402D01*
X4237222Y4455304D01*
X4267327Y4485408D01*
X4274853Y4492200D01*
X4307877Y4519066D01*
X4319528Y4535573D01*
X4330406Y4548488D01*
X4853102Y5071183D01*
X4855533Y5073532D01*
X4902922Y5117790D01*
X4902923Y5117791D01*
X4925049Y5154177D01*
X4930740Y5162539D01*
X4956472Y5196471D01*
X4963884Y5215268D01*
X4971396Y5230390D01*
X4981894Y5247652D01*
X4993380Y5288648D01*
X4996612Y5298259D01*
X4999291Y5305052D01*
X5012230Y5337862D01*
X5014296Y5357970D01*
X5017446Y5374545D01*
X5022900Y5394006D01*
X5022900Y5436577D01*
X5023419Y5446702D01*
X5027773Y5489053D01*
X5027773Y5489054D01*
X5024339Y5508965D01*
X5022900Y5525787D01*
X5022900Y5712596D01*
X5033690Y5757541D01*
X5036914Y5763868D01*
X5080646Y5849696D01*
X5095500Y5943481D01*
X5095499Y7706518D01*
X5095499Y7706521D01*
X5080647Y7800303D01*
X5045132Y7870003D01*
X5023050Y7913342D01*
X4933342Y8003050D01*
X4820304Y8060646D01*
X4726519Y8075500D01*
X4213482Y8075499D01*
X4213478Y8075499D01*
X4119696Y8060647D01*
X4008773Y8004127D01*
X4006658Y8003050D01*
X3971547Y7967939D01*
X3922590Y7941207D01*
X3866949Y7945187D01*
X3822293Y7978616D01*
X3782188Y8032189D01*
X3667088Y8118353D01*
X3551000Y8161652D01*
X3530230Y8175000D01*
X3525000Y8175000D01*
X2875000Y8175000D01*
X2869771Y8175000D01*
X2849000Y8161652D01*
X2732910Y8118353D01*
X2617812Y8032190D01*
X2577706Y7978615D01*
X2533049Y7945187D01*
X2477408Y7941208D01*
X2428451Y7967941D01*
X2393342Y8003050D01*
X2314140Y8043405D01*
X2277531Y8075492D01*
X2260641Y8121152D01*
X2267558Y8169342D01*
X2296609Y8208408D01*
X2299878Y8211067D01*
X2311530Y8227574D01*
X2322405Y8240486D01*
X4828102Y10746183D01*
X4830533Y10748531D01*
X4877922Y10792790D01*
X4900041Y10829162D01*
X4905744Y10837542D01*
X4931472Y10871470D01*
X4938883Y10890263D01*
X4946394Y10905386D01*
X4956893Y10922652D01*
X4956894Y10922653D01*
X4968381Y10963652D01*
X4971611Y10973255D01*
X4987230Y11012862D01*
X4988326Y11023529D01*
X4989295Y11032958D01*
X4992446Y11049545D01*
X4997900Y11069006D01*
X4997900Y11111577D01*
X4998419Y11121702D01*
X5002773Y11164053D01*
X5001452Y11171717D01*
X4999339Y11183965D01*
X4997900Y11200787D01*
X4997900Y11312596D01*
X5008690Y11357541D01*
X5055646Y11449696D01*
X5070500Y11543481D01*
X5070499Y12408573D01*
X5087183Y12463574D01*
X5131613Y12500037D01*
X5188813Y12505671D01*
X5239503Y12478577D01*
X8118104Y9599978D01*
X8139564Y9567860D01*
X8147100Y9529974D01*
X8147100Y2211118D01*
X8147042Y2207737D01*
X8144827Y2142926D01*
X8154907Y2101559D01*
X8156798Y2091607D01*
X8162596Y2049428D01*
X8170648Y2030891D01*
X8176028Y2014894D01*
X8180813Y1995258D01*
X8201678Y1958150D01*
X8206186Y1949074D01*
X8223150Y1910019D01*
X8235905Y1894341D01*
X8245399Y1880392D01*
X8255304Y1862776D01*
X8285411Y1832668D01*
X8292199Y1825146D01*
X8319067Y1792121D01*
X8335577Y1780467D01*
X8348487Y1769593D01*
X10501183Y-383102D01*
X10503532Y-385533D01*
X10547791Y-432923D01*
X10584177Y-455049D01*
X10592539Y-460740D01*
X10626471Y-486472D01*
X10645267Y-493884D01*
X10660390Y-501396D01*
X10677652Y-511894D01*
X10718648Y-523380D01*
X10728253Y-526610D01*
X10767862Y-542230D01*
X10787970Y-544296D01*
X10804545Y-547446D01*
X10824006Y-552900D01*
X10866577Y-552900D01*
X10876700Y-553418D01*
X10882429Y-554007D01*
X10883384Y-554106D01*
X10929616Y-571194D01*
X10961879Y-608457D01*
X10974940Y-634685D01*
X10974942Y-634689D01*
X11109019Y-812236D01*
X11273438Y-962124D01*
X11462599Y-1079247D01*
X11670060Y-1159618D01*
X11670063Y-1159619D01*
X11888755Y-1200500D01*
X11888757Y-1200500D01*
X12111243Y-1200500D01*
X12111245Y-1200500D01*
X12329937Y-1159619D01*
X12334344Y-1157912D01*
X12366946Y-1145281D01*
X12467937Y-1106158D01*
X12515109Y-1100133D01*
X12559649Y-1116798D01*
X12591278Y-1152310D01*
X12602700Y-1198473D01*
X12602700Y-1344374D01*
X12595164Y-1382260D01*
X12573703Y-1414378D01*
X12407075Y-1581004D01*
X12366356Y-1605570D01*
X12318881Y-1608314D01*
X12111245Y-1569500D01*
X12111243Y-1569500D01*
X11888757Y-1569500D01*
X11888755Y-1569500D01*
X11670063Y-1610380D01*
X11462600Y-1690752D01*
X11273436Y-1807877D01*
X11109020Y-1957763D01*
X10974940Y-2135313D01*
X10881968Y-2322026D01*
X10875771Y-2334472D01*
X10814885Y-2548464D01*
X10794357Y-2770000D01*
X10814885Y-2991536D01*
X10872171Y-3192877D01*
X10875772Y-3205530D01*
X10974940Y-3404686D01*
X10974941Y-3404687D01*
X10974942Y-3404689D01*
X11109019Y-3582236D01*
X11273438Y-3732124D01*
X11462599Y-3849247D01*
X11656942Y-3924536D01*
X11670063Y-3929619D01*
X11888755Y-3970500D01*
X11888757Y-3970500D01*
X12111243Y-3970500D01*
X12111245Y-3970500D01*
X12329936Y-3929619D01*
X12329937Y-3929618D01*
X12329940Y-3929618D01*
X12537401Y-3849247D01*
X12726562Y-3732124D01*
X12890981Y-3582236D01*
X13025058Y-3404689D01*
X13124229Y-3205528D01*
X13185115Y-2991536D01*
X13205643Y-2770000D01*
X13185115Y-2548464D01*
X13160796Y-2462996D01*
X13160197Y-2411019D01*
X13186013Y-2365903D01*
X13538715Y-2013202D01*
X13541117Y-2010882D01*
X13542118Y-2009946D01*
X13588523Y-1966609D01*
X13605248Y-1939104D01*
X13643144Y-1903246D01*
X13694009Y-1891632D01*
X13743715Y-1907490D01*
X13778456Y-1946416D01*
X13814940Y-2019686D01*
X13814941Y-2019687D01*
X13814942Y-2019689D01*
X13949019Y-2197236D01*
X14113438Y-2347124D01*
X14302599Y-2464247D01*
X14411411Y-2506401D01*
X14510063Y-2544619D01*
X14728755Y-2585500D01*
X14728757Y-2585500D01*
X14951243Y-2585500D01*
X14951245Y-2585500D01*
X15169936Y-2544619D01*
X15169937Y-2544618D01*
X15169940Y-2544618D01*
X15377401Y-2464247D01*
X15566562Y-2347124D01*
X15730981Y-2197236D01*
X15865058Y-2019689D01*
X15964229Y-1820528D01*
X16025115Y-1606536D01*
X16045643Y-1385000D01*
X16025115Y-1163464D01*
X15964229Y-949472D01*
X15865058Y-750311D01*
X15730981Y-572764D01*
X15566562Y-422876D01*
X15377401Y-305753D01*
X15377399Y-305752D01*
X15169936Y-225380D01*
X14951245Y-184500D01*
X14951243Y-184500D01*
X14728757Y-184500D01*
X14728755Y-184500D01*
X14510063Y-225380D01*
X14302600Y-305752D01*
X14113436Y-422877D01*
X13999645Y-526612D01*
X13949019Y-572764D01*
X13898139Y-640141D01*
X13886504Y-655548D01*
X13836785Y-690457D01*
X13776039Y-689755D01*
X13727139Y-653707D01*
X13708500Y-595887D01*
X13708500Y533294D01*
X13708558Y536675D01*
X13710604Y596558D01*
X13730693Y653036D01*
X13779692Y687568D01*
X13839637Y687493D01*
X13888550Y652838D01*
X13949019Y572763D01*
X14113436Y422877D01*
X14302600Y305752D01*
X14510063Y225380D01*
X14728755Y184500D01*
X14728757Y184500D01*
X14951243Y184500D01*
X14951245Y184500D01*
X15169936Y225380D01*
X15377399Y305752D01*
X15457020Y355051D01*
X15566562Y422876D01*
X15730981Y572764D01*
X15865058Y750311D01*
X15964229Y949472D01*
X16025115Y1163464D01*
X16045643Y1385000D01*
X16025115Y1606536D01*
X15964229Y1820528D01*
X15865058Y2019689D01*
X15730981Y2197236D01*
X15566562Y2347124D01*
X15377401Y2464247D01*
X15169940Y2544618D01*
X15169937Y2544618D01*
X15169936Y2544619D01*
X14951245Y2585500D01*
X14951243Y2585500D01*
X14728757Y2585500D01*
X14728755Y2585500D01*
X14510063Y2544619D01*
X14510060Y2544618D01*
X14302599Y2464247D01*
X14113438Y2347124D01*
X13949019Y2197236D01*
X13817537Y2023125D01*
X13814940Y2019686D01*
X13716571Y1822134D01*
X13715771Y1820528D01*
X13654885Y1606536D01*
X13643292Y1481425D01*
X13634357Y1385000D01*
X13654885Y1163463D01*
X13683098Y1064306D01*
X13681261Y1004343D01*
X13645133Y956450D01*
X13587981Y938214D01*
X13530790Y956331D01*
X13528635Y957851D01*
X13520026Y963928D01*
X13507118Y974799D01*
X12943188Y1538729D01*
X12940867Y1541133D01*
X12896609Y1588523D01*
X12860224Y1610647D01*
X12851848Y1616348D01*
X12817929Y1642072D01*
X12799129Y1649485D01*
X12784015Y1656992D01*
X12766747Y1667494D01*
X12766745Y1667494D01*
X12763219Y1669639D01*
X12723698Y1715150D01*
X12717896Y1775146D01*
X12747963Y1827386D01*
X12890981Y1957764D01*
X13025058Y2135311D01*
X13124229Y2334472D01*
X13185115Y2548464D01*
X13205643Y2770000D01*
X13185115Y2991536D01*
X13124229Y3205528D01*
X13025058Y3404689D01*
X12890981Y3582236D01*
X12726562Y3732124D01*
X12537401Y3849247D01*
X12329940Y3929618D01*
X12329937Y3929618D01*
X12329936Y3929619D01*
X12111245Y3970500D01*
X12111243Y3970500D01*
X11888757Y3970500D01*
X11888755Y3970500D01*
X11670063Y3929619D01*
X11670060Y3929618D01*
X11462599Y3849247D01*
X11273438Y3732124D01*
X11109019Y3582236D01*
X10993299Y3428997D01*
X10974940Y3404686D01*
X10944106Y3342763D01*
X10875771Y3205528D01*
X10814885Y2991536D01*
X10794357Y2770000D01*
X10814885Y2548464D01*
X10835642Y2475509D01*
X10875772Y2334469D01*
X10974940Y2135313D01*
X11062258Y2019686D01*
X11109019Y1957764D01*
X11185796Y1887772D01*
X11193596Y1880662D01*
X11223270Y1830166D01*
X11219215Y1771737D01*
X11182849Y1725825D01*
X11126900Y1708500D01*
X10732847Y1708500D01*
X10694961Y1716036D01*
X10662843Y1737496D01*
X9789896Y2610443D01*
X9768436Y2642561D01*
X9760900Y2680447D01*
X9760900Y4155000D01*
X13634357Y4155000D01*
X13654885Y3933464D01*
X13707168Y3749707D01*
X13715772Y3719469D01*
X13814940Y3520313D01*
X13902258Y3404686D01*
X13936763Y3358993D01*
X13949020Y3342763D01*
X14113436Y3192877D01*
X14302600Y3075752D01*
X14510063Y2995380D01*
X14728755Y2954500D01*
X14728757Y2954500D01*
X14951243Y2954500D01*
X14951245Y2954500D01*
X15169936Y2995380D01*
X15377399Y3075752D01*
X15525796Y3167635D01*
X15566562Y3192876D01*
X15730981Y3342764D01*
X15865058Y3520311D01*
X15964229Y3719472D01*
X16025115Y3933464D01*
X16045643Y4155000D01*
X16025115Y4376536D01*
X15964229Y4590528D01*
X15865058Y4789689D01*
X15730981Y4967236D01*
X15566562Y5117124D01*
X15377401Y5234247D01*
X15169940Y5314618D01*
X15169937Y5314618D01*
X15169936Y5314619D01*
X14951245Y5355500D01*
X14951243Y5355500D01*
X14728757Y5355500D01*
X14728755Y5355500D01*
X14510063Y5314619D01*
X14510060Y5314618D01*
X14302599Y5234247D01*
X14113438Y5117124D01*
X13949019Y4967236D01*
X13815636Y4790608D01*
X13814940Y4789686D01*
X13754278Y4667861D01*
X13715771Y4590528D01*
X13654885Y4376536D01*
X13634357Y4155000D01*
X9760900Y4155000D01*
X9760900Y4460972D01*
X11274527Y4460972D01*
X11347519Y4409864D01*
X11553670Y4313734D01*
X11773398Y4254858D01*
X12000000Y4235033D01*
X12226601Y4254858D01*
X12446329Y4313734D01*
X12652480Y4409864D01*
X12725472Y4460972D01*
X12000000Y5186446D01*
X11274527Y4460972D01*
X9760900Y4460972D01*
X9760900Y5540000D01*
X10695034Y5540000D01*
X10714858Y5313398D01*
X10773734Y5093670D01*
X10869864Y4887519D01*
X10920972Y4814527D01*
X11646446Y5540000D01*
X12353554Y5540000D01*
X13079026Y4814527D01*
X13130135Y4887519D01*
X13226265Y5093670D01*
X13285141Y5313398D01*
X13304966Y5540000D01*
X13285141Y5766601D01*
X13226265Y5986329D01*
X13130135Y6192480D01*
X13079026Y6265471D01*
X12353554Y5540000D01*
X11646446Y5540000D01*
X10920972Y6265472D01*
X10869864Y6192480D01*
X10773734Y5986329D01*
X10714858Y5766601D01*
X10695034Y5540000D01*
X9760900Y5540000D01*
X9760900Y6619026D01*
X11274527Y6619026D01*
X11999999Y5893554D01*
X12725471Y6619026D01*
X12652480Y6670135D01*
X12446329Y6766265D01*
X12226601Y6825141D01*
X12000000Y6844966D01*
X11773398Y6825141D01*
X11553670Y6766265D01*
X11347519Y6670135D01*
X11274527Y6619026D01*
X9760900Y6619026D01*
X9760900Y9999302D01*
X9760958Y10002683D01*
X9763172Y10067489D01*
X9763171Y10067489D01*
X9763172Y10067493D01*
X9753085Y10108884D01*
X9751201Y10118799D01*
X9745402Y10160993D01*
X9737351Y10179526D01*
X9731971Y10195526D01*
X9727187Y10215160D01*
X9706320Y10252269D01*
X9701816Y10261336D01*
X9684850Y10300399D01*
X9672093Y10316079D01*
X9662595Y10330035D01*
X9652695Y10347643D01*
X9622591Y10377746D01*
X9615808Y10385261D01*
X9588932Y10418298D01*
X9572417Y10429954D01*
X9559518Y10440818D01*
X7570109Y12430227D01*
X11510878Y12430227D01*
X11541381Y12153004D01*
X11611926Y11883166D01*
X11721002Y11626489D01*
X11866297Y11388415D01*
X12044697Y11174044D01*
X12252414Y10987928D01*
X12485021Y10834037D01*
X12737541Y10715661D01*
X13004625Y10635308D01*
X13223003Y10603169D01*
X13280550Y10594700D01*
X13489627Y10594700D01*
X13489628Y10594700D01*
X13541760Y10598515D01*
X13698159Y10609962D01*
X13970377Y10670602D01*
X13970381Y10670603D01*
X13970383Y10670604D01*
X14230880Y10770235D01*
X14230883Y10770236D01*
X14474095Y10906734D01*
X14694844Y11077190D01*
X14888417Y11277966D01*
X15050701Y11504798D01*
X15178225Y11752833D01*
X15178248Y11752900D01*
X15268277Y12016797D01*
X15318935Y12291058D01*
X15329121Y12569772D01*
X15298618Y12846998D01*
X15228075Y13116829D01*
X15118996Y13373514D01*
X14973705Y13611581D01*
X14795301Y13825957D01*
X14587584Y14012072D01*
X14354982Y14165960D01*
X14102452Y14284341D01*
X13835378Y14364691D01*
X13559450Y14405300D01*
X13350372Y14405300D01*
X13141844Y14390038D01*
X12869617Y14329396D01*
X12609120Y14229765D01*
X12609117Y14229763D01*
X12609116Y14229763D01*
X12529436Y14185044D01*
X12365905Y14093266D01*
X12365904Y14093265D01*
X12145155Y13922809D01*
X11951582Y13722033D01*
X11789298Y13495201D01*
X11661774Y13247166D01*
X11645513Y13199500D01*
X11571723Y12983203D01*
X11571722Y12983198D01*
X11521065Y12708944D01*
X11510878Y12430227D01*
X7570109Y12430227D01*
X5478609Y14521728D01*
X5476288Y14524132D01*
X5432030Y14571522D01*
X5395645Y14593646D01*
X5387269Y14599347D01*
X5353350Y14625071D01*
X5334550Y14632484D01*
X5319436Y14639991D01*
X5302168Y14650493D01*
X5261159Y14661982D01*
X5251578Y14665204D01*
X5211959Y14680829D01*
X5191851Y14682895D01*
X5175273Y14686046D01*
X5155815Y14691499D01*
X5155814Y14691499D01*
X5113244Y14691499D01*
X5103120Y14692017D01*
X5060767Y14696372D01*
X5040855Y14692938D01*
X5024034Y14691499D01*
X-3750283Y14691499D01*
X-3753661Y14691556D01*
X-3768105Y14692050D01*
X-3818470Y14693771D01*
X-3818470Y14693770D01*
X-3818474Y14693771D01*
X-3859865Y14683684D01*
X-3869780Y14681800D01*
X-3911974Y14676001D01*
X-3929867Y14668228D01*
X-3930501Y14667953D01*
X-3946508Y14662569D01*
X-3966142Y14657786D01*
X-3979113Y14650492D01*
X-4003248Y14636921D01*
X-4012327Y14632410D01*
X-4051380Y14615449D01*
X-4067061Y14602690D01*
X-4081012Y14593195D01*
X-4098624Y14583294D01*
X-4098624Y14583293D01*
X-4098625Y14583293D01*
X-4128727Y14553191D01*
X-4136255Y14546397D01*
X-4169279Y14519531D01*
X-4180929Y14503025D01*
X-4191802Y14490114D01*
X-4828129Y13853788D01*
X-4830532Y13851467D01*
X-4877923Y13807209D01*
X-4891858Y13784292D01*
X-4900046Y13770827D01*
X-4905748Y13762448D01*
X-4931472Y13728529D01*
X-4938885Y13709729D01*
X-4946392Y13694615D01*
X-4956894Y13677347D01*
X-4968383Y13636338D01*
X-4971605Y13626757D01*
X-4987230Y13587138D01*
X-4989296Y13567030D01*
X-4992448Y13550448D01*
X-5001572Y13517889D01*
X-5002521Y13518154D01*
X-5008689Y13492460D01*
X-5055646Y13400304D01*
X-5070500Y13306519D01*
X-5070499Y12661494D01*
X-5070499Y12285225D01*
X-5087183Y12230224D01*
X-5131613Y12193761D01*
X-5188813Y12188127D01*
X-5239503Y12215221D01*
X-6007480Y12983198D01*
X-6807383Y13783102D01*
X-6809732Y13785533D01*
X-6853990Y13832922D01*
X-6853991Y13832923D01*
X-6890377Y13855049D01*
X-6898739Y13860740D01*
X-6932671Y13886472D01*
X-6951468Y13893884D01*
X-6966590Y13901396D01*
X-6983852Y13911894D01*
X-7022810Y13922809D01*
X-7024848Y13923380D01*
X-7034453Y13926610D01*
X-7074062Y13942230D01*
X-7094170Y13944296D01*
X-7110745Y13947446D01*
X-7130206Y13952900D01*
X-7130207Y13952900D01*
X-7172777Y13952900D01*
X-7182900Y13953418D01*
X-7197849Y13954955D01*
X-7225253Y13957773D01*
X-7225253Y13957772D01*
X-7225254Y13957773D01*
X-7245165Y13954339D01*
X-7261987Y13952900D01*
X-8365054Y13952900D01*
X-8408841Y13963110D01*
X-8443597Y13991633D01*
X-8471720Y14028284D01*
X-8597158Y14124535D01*
X-8597159Y14124536D01*
X-8743238Y14185044D01*
X-8860639Y14200500D01*
X-9439360Y14200499D01*
X-9439361Y14200499D01*
X-9498061Y14192771D01*
X-9556762Y14185044D01*
X-9702841Y14124536D01*
X-9804603Y14046451D01*
X-9828279Y14028284D01*
X-9828282Y14028282D01*
X-9858970Y13988287D01*
X-9896199Y13958587D01*
X-9942991Y13949707D01*
X-9988515Y13963704D01*
X-10022234Y13997339D01*
X-10044922Y14034870D01*
X-10165127Y14155075D01*
X-10310602Y14243018D01*
X-10472891Y14293590D01*
X-10487459Y14294914D01*
X-10506250Y14300000D01*
X-10525000Y14300000D01*
X-11175000Y14300000D01*
X-11193748Y14300000D01*
X-11212540Y14294914D01*
X-11227107Y14293590D01*
X-11389397Y14243018D01*
X-11534872Y14155075D01*
X-11655075Y14034872D01*
X-11743018Y13889397D01*
X-11793590Y13727107D01*
X-11794914Y13712541D01*
X-11800000Y13693749D01*
X-11800000Y13106250D01*
X-11794914Y13087459D01*
X-11793590Y13072892D01*
X-11743018Y12910602D01*
X-11655075Y12765127D01*
X-11534870Y12644922D01*
X-11497339Y12622234D01*
X-11463704Y12588515D01*
X-11449707Y12542991D01*
X-11458587Y12496199D01*
X-11488287Y12458970D01*
X-11528282Y12428282D01*
X-11624536Y12302841D01*
X-11685044Y12156762D01*
X-11700500Y12039361D01*
X-11700499Y11752900D01*
X-11700499Y11560638D01*
X-11698240Y11543481D01*
X-11685044Y11443238D01*
X-11624536Y11297159D01*
X-11609809Y11277966D01*
X-11528282Y11171717D01*
X-11406852Y11078542D01*
X-11372701Y11029770D01*
X-11372701Y10970230D01*
X-11406851Y10921458D01*
X-11528282Y10828282D01*
X-11624536Y10702841D01*
X-11685044Y10556762D01*
X-11700500Y10439361D01*
X-11700499Y10195526D01*
X-11700499Y9960638D01*
X-11696637Y9931305D01*
X-11685044Y9843238D01*
X-11624536Y9697159D01*
X-11624535Y9697158D01*
X-11528282Y9571717D01*
X-11488288Y9541029D01*
X-11458586Y9503798D01*
X-11449707Y9457007D01*
X-11463705Y9411483D01*
X-11497340Y9377764D01*
X-11534872Y9355075D01*
X-11655075Y9234872D01*
X-11743018Y9089397D01*
X-11793590Y8927107D01*
X-11794914Y8912541D01*
X-11800000Y8893749D01*
X-11800000Y8306250D01*
X-11794914Y8287459D01*
X-11793590Y8272892D01*
X-11743018Y8110602D01*
X-11655074Y7965125D01*
X-11559953Y7870003D01*
X-11534330Y7825623D01*
X-11534330Y7774377D01*
X-11559953Y7729997D01*
X-11655074Y7634874D01*
X-11743018Y7489397D01*
X-11793590Y7327107D01*
X-11794914Y7312541D01*
X-11800000Y7293749D01*
X-11800000Y6706250D01*
X-11794914Y6687459D01*
X-11793590Y6672892D01*
X-11743018Y6510601D01*
X-11738494Y6503118D01*
X-11724226Y6453397D01*
X-11736984Y6403267D01*
X-11773284Y6366414D01*
X-11823215Y6352900D01*
X-11944187Y6352900D01*
X-11982073Y6360436D01*
X-12014191Y6381896D01*
X-13983128Y8350834D01*
X-14010774Y8404542D01*
X-14002066Y8464317D01*
X-13960245Y8507905D01*
X-13931373Y8523530D01*
X-13748217Y8666086D01*
X-13591021Y8836846D01*
X-13464073Y9031156D01*
X-13370844Y9243695D01*
X-13331389Y9399500D01*
X-13313866Y9468695D01*
X-13294700Y9700000D01*
X-13313866Y9931305D01*
X-13370843Y10156300D01*
X-13370844Y10156304D01*
X-13464073Y10368843D01*
X-13464074Y10368844D01*
X-13464076Y10368849D01*
X-13591021Y10563153D01*
X-13748216Y10733913D01*
X-13931374Y10876470D01*
X-14135497Y10986936D01*
X-14355019Y11062298D01*
X-14583951Y11100500D01*
X-14816049Y11100500D01*
X-15044981Y11062298D01*
X-15264503Y10986936D01*
X-15468626Y10876470D01*
X-15651784Y10733913D01*
X-15808979Y10563153D01*
X-15935924Y10368849D01*
X-16029157Y10156300D01*
X-16086134Y9931305D01*
X-16105300Y9700000D01*
X-16086134Y9468695D01*
X-16029157Y9243700D01*
X-15935924Y9031151D01*
X-15808979Y8836847D01*
X-15651784Y8666087D01*
X-15567517Y8600500D01*
X-15468626Y8523530D01*
X-15304781Y8434861D01*
X-15266854Y8398470D01*
X-15252900Y8347793D01*
X-15252900Y8296905D01*
X-15252957Y8293526D01*
X-15255172Y8228714D01*
X-15245089Y8187340D01*
X-15243200Y8177398D01*
X-15242093Y8169342D01*
X-15237402Y8135214D01*
X-15229354Y8116687D01*
X-15223971Y8100681D01*
X-15219187Y8081046D01*
X-15198314Y8043926D01*
X-15193814Y8034866D01*
X-15176850Y7995808D01*
X-15176848Y7995806D01*
X-15164095Y7980130D01*
X-15154601Y7966181D01*
X-15144695Y7948564D01*
X-15120493Y7924362D01*
X-15092937Y7871179D01*
X-15101094Y7811839D01*
X-15141979Y7768064D01*
X-15200622Y7755878D01*
X-15219054Y7757773D01*
X-15238965Y7754339D01*
X-15255787Y7752900D01*
X-15848536Y7752900D01*
X-15902684Y7769020D01*
X-15939197Y7812132D01*
X-15964073Y7868843D01*
X-15964074Y7868844D01*
X-15964076Y7868849D01*
X-16091021Y8063153D01*
X-16248216Y8233913D01*
X-16431374Y8376470D01*
X-16635497Y8486936D01*
X-16855019Y8562298D01*
X-17083951Y8600500D01*
X-17316049Y8600500D01*
X-17544981Y8562298D01*
X-17764503Y8486936D01*
X-17968626Y8376470D01*
X-18151784Y8233913D01*
X-18308979Y8063153D01*
X-18435924Y7868849D01*
X-18529157Y7656300D01*
X-18586134Y7431305D01*
X-18605300Y7200000D01*
X-19668239Y7200000D01*
X-12012867Y14855372D01*
X-11995708Y14869084D01*
X-11929166Y14911088D01*
X-11915072Y14918473D01*
X-11827022Y14955926D01*
X-11811931Y14960956D01*
X-11719031Y14983821D01*
X-11703326Y14986370D01*
X-11699194Y14986703D01*
X-11603956Y14994380D01*
X-11596003Y14994700D01*
X-11551645Y14994700D01*
X21951645Y14994700D01*
X21995140Y14994700D01*
X22004843Y14994223D01*
G37*
G04 #@! TD.AperFunction*
M02*
