G04 #@! TF.GenerationSoftware,KiCad,Pcbnew,7.0.1*
G04 #@! TF.CreationDate,2023-03-20T20:32:02+09:00*
G04 #@! TF.ProjectId,usbRS232C,75736252-5332-4333-9243-2e6b69636164,V1.0*
G04 #@! TF.SameCoordinates,Original*
G04 #@! TF.FileFunction,Copper,L2,Bot*
G04 #@! TF.FilePolarity,Positive*
%FSLAX46Y46*%
G04 Gerber Fmt 4.6, Leading zero omitted, Abs format (unit mm)*
G04 Created by KiCad (PCBNEW 7.0.1) date 2023-03-20 20:32:02*
%MOMM*%
%LPD*%
G01*
G04 APERTURE LIST*
G04 #@! TA.AperFunction,ComponentPad*
%ADD10C,1.700000*%
G04 #@! TD*
G04 #@! TA.AperFunction,ComponentPad*
%ADD11O,1.700000X1.700000*%
G04 #@! TD*
G04 #@! TA.AperFunction,ComponentPad*
%ADD12C,2.000000*%
G04 #@! TD*
G04 #@! TA.AperFunction,ComponentPad*
%ADD13R,3.000000X2.000000*%
G04 #@! TD*
G04 #@! TA.AperFunction,ComponentPad*
%ADD14R,1.600000X1.600000*%
G04 #@! TD*
G04 #@! TA.AperFunction,ComponentPad*
%ADD15C,1.600000*%
G04 #@! TD*
G04 #@! TA.AperFunction,ViaPad*
%ADD16C,0.609600*%
G04 #@! TD*
G04 #@! TA.AperFunction,Conductor*
%ADD17C,0.304800*%
G04 #@! TD*
G04 APERTURE END LIST*
D10*
X-10000000Y2540000D03*
D11*
X-10000000Y0D03*
X-10000000Y-2540000D03*
D12*
X-17200000Y-7200000D03*
D13*
X-17500000Y4000000D03*
X-17500000Y-4000000D03*
D14*
X12000000Y-5540000D03*
D15*
X12000000Y-2770000D03*
X12000000Y0D03*
X12000000Y2770000D03*
X12000000Y5540000D03*
X14840000Y-4155000D03*
X14840000Y-1385000D03*
X14840000Y1385000D03*
X14840000Y4155000D03*
D12*
X-17200000Y7200000D03*
X-14700000Y9700000D03*
D16*
X4000000Y-9000000D03*
X15000000Y-10000000D03*
X15000000Y10000000D03*
X-7000000Y-5500000D03*
X1400000Y1600000D03*
X-6000000Y-13500000D03*
X-7000000Y-2500000D03*
X4400000Y9400000D03*
X-12700000Y8100000D03*
X-7500000Y-10200000D03*
X-1000000Y-10200000D03*
X-2800000Y0D03*
X-7500000Y7000000D03*
X2300000Y-7700000D03*
X-13750000Y800000D03*
X-3600000Y-11000000D03*
X-4200000Y-11700000D03*
X-13750000Y-12303D03*
D17*
X-9100000Y-10200000D02*
X-7500000Y-10200000D01*
X-7500000Y-10200000D02*
X-1000000Y-10200000D01*
X-11500000Y1040000D02*
X-11500000Y-7800000D01*
X-10000000Y2540000D02*
X-11500000Y1040000D01*
X-11500000Y-7800000D02*
X-9100000Y-10200000D01*
X-10000000Y0D02*
X-7500000Y0D01*
X-7500000Y7000000D02*
X-7500000Y0D01*
X-7500000Y0D02*
X-2800000Y0D01*
X2300000Y-5100000D02*
X2300000Y-7700000D01*
X-2800000Y0D02*
X2300000Y-5100000D01*
X-13100000Y800000D02*
X-12007999Y-292001D01*
X-9018420Y-11000000D02*
X-3600000Y-11000000D01*
X-12007999Y-292001D02*
X-12007999Y-8010421D01*
X-12007999Y-8010421D02*
X-9018420Y-11000000D01*
X-13750000Y800000D02*
X-13100000Y800000D01*
X-12515999Y-8220841D02*
X-9036840Y-11700000D01*
X-9036840Y-11700000D02*
X-4200000Y-11700000D01*
X-12515999Y-502421D02*
X-12515999Y-8220841D01*
X-13750000Y-12303D02*
X-13006117Y-12303D01*
X-13006117Y-12303D02*
X-12515999Y-502421D01*
G04 #@! TA.AperFunction,Conductor*
G36*
X22004843Y14994223D02*
G01*
X22125822Y14982308D01*
X22144858Y14978522D01*
X22256522Y14944648D01*
X22274451Y14937221D01*
X22377354Y14882219D01*
X22393492Y14871436D01*
X22483690Y14797411D01*
X22497411Y14783690D01*
X22571436Y14693492D01*
X22582219Y14677354D01*
X22637221Y14574451D01*
X22644648Y14556522D01*
X22678522Y14444858D01*
X22682308Y14425822D01*
X22694223Y14304843D01*
X22694700Y14295140D01*
X22694700Y-14295140D01*
X22694223Y-14304843D01*
X22682308Y-14425822D01*
X22678522Y-14444858D01*
X22644648Y-14556522D01*
X22637221Y-14574451D01*
X22582219Y-14677354D01*
X22571436Y-14693492D01*
X22497411Y-14783690D01*
X22483690Y-14797411D01*
X22393492Y-14871436D01*
X22377354Y-14882219D01*
X22274451Y-14937221D01*
X22256522Y-14944648D01*
X22144858Y-14978522D01*
X22125822Y-14982308D01*
X22004843Y-14994223D01*
X21995140Y-14994700D01*
X-11596016Y-14994700D01*
X-11603968Y-14994380D01*
X-11703325Y-14986371D01*
X-11719031Y-14983822D01*
X-11729067Y-14981352D01*
X-11740565Y-14978522D01*
X-11811931Y-14960957D01*
X-11827022Y-14955927D01*
X-11915070Y-14918475D01*
X-11929164Y-14911090D01*
X-11995705Y-14869087D01*
X-12012864Y-14855375D01*
X-14298467Y-12569772D01*
X11510878Y-12569772D01*
X11541381Y-12846995D01*
X11611926Y-13116833D01*
X11721002Y-13373510D01*
X11866297Y-13611584D01*
X12044697Y-13825955D01*
X12252414Y-14012071D01*
X12485021Y-14165962D01*
X12737541Y-14284338D01*
X12737542Y-14284338D01*
X12737548Y-14284341D01*
X13004622Y-14364691D01*
X13280550Y-14405300D01*
X13489627Y-14405300D01*
X13489628Y-14405300D01*
X13698156Y-14390038D01*
X13970383Y-14329396D01*
X14230880Y-14229765D01*
X14474095Y-14093266D01*
X14694843Y-13922810D01*
X14788223Y-13825955D01*
X14888417Y-13722033D01*
X14888420Y-13722029D01*
X15050701Y-13495202D01*
X15178226Y-13247165D01*
X15268277Y-12983203D01*
X15318935Y-12708942D01*
X15329121Y-12430228D01*
X15298618Y-12153002D01*
X15228075Y-11883171D01*
X15118996Y-11626486D01*
X14973705Y-11388419D01*
X14795301Y-11174043D01*
X14773700Y-11154688D01*
X14587585Y-10987928D01*
X14354978Y-10834037D01*
X14102458Y-10715661D01*
X14102453Y-10715659D01*
X14102452Y-10715659D01*
X13835378Y-10635309D01*
X13835376Y-10635308D01*
X13835374Y-10635308D01*
X13632161Y-10605401D01*
X13559450Y-10594700D01*
X13350372Y-10594700D01*
X13308666Y-10597752D01*
X13141840Y-10609962D01*
X12869622Y-10670602D01*
X12609116Y-10770236D01*
X12365904Y-10906734D01*
X12145155Y-11077190D01*
X11951582Y-11277966D01*
X11789298Y-11504798D01*
X11661774Y-11752833D01*
X11571722Y-12016801D01*
X11521065Y-12291055D01*
X11510878Y-12569772D01*
X-14298467Y-12569772D01*
X-18444629Y-8423610D01*
X-18070056Y-8423610D01*
X-18023232Y-8460055D01*
X-17804609Y-8578367D01*
X-17569491Y-8659083D01*
X-17324292Y-8700000D01*
X-17075708Y-8700000D01*
X-16830508Y-8659083D01*
X-16595390Y-8578367D01*
X-16376767Y-8460055D01*
X-16329942Y-8423610D01*
X-17200000Y-7553553D01*
X-18070056Y-8423610D01*
X-18444629Y-8423610D01*
X-19668239Y-7200000D01*
X-18705140Y-7200000D01*
X-18684612Y-7447736D01*
X-18623588Y-7688716D01*
X-18523729Y-7916371D01*
X-18423435Y-8069881D01*
X-17553553Y-7199999D01*
X-16846445Y-7199999D01*
X-15976563Y-8069881D01*
X-15876270Y-7916371D01*
X-15776411Y-7688716D01*
X-15715387Y-7447736D01*
X-15694859Y-7200000D01*
X-15715387Y-6952263D01*
X-15776411Y-6711283D01*
X-15876268Y-6483632D01*
X-15976564Y-6330118D01*
X-16846445Y-7199999D01*
X-17553553Y-7199999D01*
X-18423435Y-6330117D01*
X-18523729Y-6483628D01*
X-18623588Y-6711283D01*
X-18684612Y-6952263D01*
X-18705140Y-7200000D01*
X-19668239Y-7200000D01*
X-20891851Y-5976388D01*
X-18070056Y-5976388D01*
X-17199999Y-6846445D01*
X-16329943Y-5976389D01*
X-16376766Y-5939946D01*
X-16595393Y-5821631D01*
X-16830508Y-5740916D01*
X-17075708Y-5700000D01*
X-17324292Y-5700000D01*
X-17569491Y-5740916D01*
X-17804609Y-5821632D01*
X-18023231Y-5939944D01*
X-18070056Y-5976388D01*
X-20891851Y-5976388D01*
X-21555372Y-5312867D01*
X-21569084Y-5295708D01*
X-21611088Y-5229166D01*
X-21618473Y-5215072D01*
X-21655926Y-5127022D01*
X-21660956Y-5111931D01*
X-21676734Y-5047826D01*
X-19500000Y-5047826D01*
X-19493598Y-5107376D01*
X-19443353Y-5242089D01*
X-19357188Y-5357188D01*
X-19242089Y-5443353D01*
X-19107376Y-5493598D01*
X-19047826Y-5500000D01*
X-17750001Y-5500000D01*
X-17750000Y-5499999D01*
X-17250000Y-5499999D01*
X-17249999Y-5500000D01*
X-15952174Y-5500000D01*
X-15892623Y-5493598D01*
X-15757910Y-5443353D01*
X-15642811Y-5357188D01*
X-15556646Y-5242089D01*
X-15506401Y-5107376D01*
X-15500000Y-5047826D01*
X-15500000Y-4250001D01*
X-15500001Y-4250000D01*
X-17249999Y-4250000D01*
X-17250000Y-4250001D01*
X-17250000Y-5499999D01*
X-17750000Y-5499999D01*
X-17750000Y-4250001D01*
X-17750001Y-4250000D01*
X-19499999Y-4250000D01*
X-19500000Y-4250001D01*
X-19500000Y-5047826D01*
X-21676734Y-5047826D01*
X-21683821Y-5019031D01*
X-21686370Y-5003326D01*
X-21694380Y-4903958D01*
X-21694700Y-4896003D01*
X-21694700Y-3749999D01*
X-19500000Y-3749999D01*
X-19499999Y-3750000D01*
X-17750001Y-3750000D01*
X-17750000Y-3749999D01*
X-17250000Y-3749999D01*
X-17249999Y-3750000D01*
X-15500001Y-3750000D01*
X-15500000Y-3749999D01*
X-15500000Y-2952174D01*
X-15506401Y-2892623D01*
X-15556646Y-2757910D01*
X-15642811Y-2642811D01*
X-15757910Y-2556646D01*
X-15892623Y-2506401D01*
X-15952174Y-2500000D01*
X-17249999Y-2500000D01*
X-17250000Y-2500001D01*
X-17250000Y-3749999D01*
X-17750000Y-3749999D01*
X-17750000Y-2500001D01*
X-17750001Y-2500000D01*
X-19047826Y-2500000D01*
X-19107376Y-2506401D01*
X-19242089Y-2556646D01*
X-19357188Y-2642811D01*
X-19443353Y-2757910D01*
X-19493598Y-2892623D01*
X-19500000Y-2952174D01*
X-19500000Y-3749999D01*
X-21694700Y-3749999D01*
X-21694700Y-12303D01*
X-14460480Y-12303D01*
X-14439835Y-182332D01*
X-14379099Y-342480D01*
X-14281802Y-483438D01*
X-14153599Y-597017D01*
X-14001940Y-676613D01*
X-13835639Y-717603D01*
X-13664361Y-717603D01*
X-13498060Y-676613D01*
X-13346401Y-597017D01*
X-13346399Y-597016D01*
X-13340287Y-591602D01*
X-13296390Y-569124D01*
X-13247095Y-570614D01*
X-13204637Y-595700D01*
X-13123727Y-676612D01*
X-13097895Y-702444D01*
X-13076435Y-734562D01*
X-13068899Y-772447D01*
X-13068899Y-8209723D01*
X-13068956Y-8213101D01*
X-13071171Y-8277914D01*
X-13061084Y-8319305D01*
X-13059200Y-8329220D01*
X-13053401Y-8371414D01*
X-13045628Y-8389307D01*
X-13045353Y-8389941D01*
X-13039969Y-8405948D01*
X-13035186Y-8425582D01*
X-13035185Y-8425583D01*
X-13014321Y-8462688D01*
X-13009810Y-8471767D01*
X-12992849Y-8510820D01*
X-12980090Y-8526501D01*
X-12970595Y-8540452D01*
X-12960694Y-8558064D01*
X-12960693Y-8558065D01*
X-12930592Y-8588165D01*
X-12923808Y-8595681D01*
X-12896931Y-8628719D01*
X-12880422Y-8640371D01*
X-12867516Y-8651241D01*
X-9435628Y-12083129D01*
X-9433307Y-12085532D01*
X-9389049Y-12132923D01*
X-9356025Y-12153004D01*
X-9352667Y-12155046D01*
X-9344288Y-12160748D01*
X-9310369Y-12186472D01*
X-9291569Y-12193885D01*
X-9276455Y-12201392D01*
X-9259187Y-12211894D01*
X-9218178Y-12223383D01*
X-9208597Y-12226605D01*
X-9168978Y-12242230D01*
X-9148870Y-12244296D01*
X-9132292Y-12247447D01*
X-9112834Y-12252900D01*
X-9070263Y-12252900D01*
X-9060139Y-12253418D01*
X-9017786Y-12257773D01*
X-8997874Y-12254339D01*
X-8981053Y-12252900D01*
X-4677056Y-12252900D01*
X-4641950Y-12259333D01*
X-4611407Y-12277798D01*
X-4603600Y-12284714D01*
X-4524003Y-12326488D01*
X-4451940Y-12364310D01*
X-4285639Y-12405300D01*
X-4114361Y-12405300D01*
X-3948060Y-12364310D01*
X-3948058Y-12364309D01*
X-3796402Y-12284715D01*
X-3668197Y-12171134D01*
X-3570901Y-12030178D01*
X-3510164Y-11870026D01*
X-3497653Y-11766986D01*
X-3473477Y-11713271D01*
X-3423069Y-11682798D01*
X-3348060Y-11664310D01*
X-3275997Y-11626489D01*
X-3196402Y-11584715D01*
X-3068197Y-11471134D01*
X-2970901Y-11330178D01*
X-2910164Y-11170026D01*
X-2889519Y-11000000D01*
X-2905996Y-10864309D01*
X-2906053Y-10863831D01*
X-2897218Y-10809460D01*
X-2860688Y-10768226D01*
X-2807776Y-10752900D01*
X-1477056Y-10752900D01*
X-1441950Y-10759333D01*
X-1411407Y-10777798D01*
X-1403600Y-10784714D01*
X-1356449Y-10809460D01*
X-1251940Y-10864310D01*
X-1085639Y-10905300D01*
X-914361Y-10905300D01*
X-748060Y-10864310D01*
X-747151Y-10863833D01*
X-596402Y-10784715D01*
X-468197Y-10671134D01*
X-370901Y-10530178D01*
X-310164Y-10370026D01*
X-289519Y-10200000D01*
X-310164Y-10029973D01*
X-370901Y-9869821D01*
X-468197Y-9728865D01*
X-596402Y-9615284D01*
X-748058Y-9535690D01*
X-914361Y-9494700D01*
X-1085639Y-9494700D01*
X-1251941Y-9535690D01*
X-1403600Y-9615285D01*
X-1411407Y-9622202D01*
X-1441950Y-9640667D01*
X-1477056Y-9647100D01*
X-7022944Y-9647100D01*
X-7058050Y-9640667D01*
X-7088593Y-9622202D01*
X-7096399Y-9615285D01*
X-7248058Y-9535690D01*
X-7414361Y-9494700D01*
X-7585639Y-9494700D01*
X-7751941Y-9535690D01*
X-7903600Y-9615285D01*
X-7911407Y-9622202D01*
X-7941950Y-9640667D01*
X-7977056Y-9647100D01*
X-8829973Y-9647100D01*
X-8867859Y-9639564D01*
X-8899977Y-9618104D01*
X-10918104Y-7599977D01*
X-10939564Y-7567859D01*
X-10947100Y-7529973D01*
X-10947100Y-3593590D01*
X-10932736Y-3542231D01*
X-10893813Y-3505776D01*
X-10841625Y-3494802D01*
X-10791315Y-3512494D01*
X-10627639Y-3627102D01*
X-10429330Y-3719575D01*
X-10217977Y-3776207D01*
X-10000000Y-3795277D01*
X-9782023Y-3776207D01*
X-9570670Y-3719575D01*
X-9570666Y-3719573D01*
X-9570665Y-3719573D01*
X-9372363Y-3627103D01*
X-9372362Y-3627102D01*
X-9372361Y-3627102D01*
X-9193123Y-3501598D01*
X-9038402Y-3346877D01*
X-8912898Y-3167639D01*
X-8912897Y-3167638D01*
X-8912896Y-3167636D01*
X-8820426Y-2969334D01*
X-8763792Y-2757973D01*
X-8744722Y-2539999D01*
X-8763792Y-2322026D01*
X-8820426Y-2110665D01*
X-8912896Y-1912364D01*
X-9038399Y-1733126D01*
X-9193126Y-1578399D01*
X-9372363Y-1452896D01*
X-9572172Y-1359724D01*
X-9613829Y-1323193D01*
X-9629333Y-1270000D01*
X-9613829Y-1216807D01*
X-9572172Y-1180276D01*
X-9372363Y-1087103D01*
X-9372362Y-1087102D01*
X-9372361Y-1087102D01*
X-9193123Y-961598D01*
X-9038402Y-806877D01*
X-8975891Y-717603D01*
X-8912898Y-627639D01*
X-8904702Y-610062D01*
X-8868170Y-568404D01*
X-8814977Y-552900D01*
X-7575994Y-552900D01*
X-7522265Y-552900D01*
X-7515509Y-553130D01*
X-7461914Y-556797D01*
X-7461913Y-556796D01*
X-7461913Y-556797D01*
X-7453126Y-554971D01*
X-7432983Y-552900D01*
X-3277056Y-552900D01*
X-3241950Y-559333D01*
X-3211407Y-577798D01*
X-3203600Y-584714D01*
X-3155302Y-610062D01*
X-3051940Y-664310D01*
X-2900462Y-701646D01*
X-2854155Y-727762D01*
X668081Y-4250000D01*
X1718104Y-5300023D01*
X1739564Y-5332141D01*
X1747100Y-5370027D01*
X1747100Y-7228581D01*
X1729575Y-7284820D01*
X1670901Y-7369821D01*
X1610164Y-7529973D01*
X1589519Y-7700000D01*
X1610164Y-7870026D01*
X1670901Y-8030178D01*
X1768197Y-8171134D01*
X1896402Y-8284715D01*
X1962252Y-8319275D01*
X2048060Y-8364310D01*
X2214361Y-8405300D01*
X2385639Y-8405300D01*
X2551940Y-8364310D01*
X2703599Y-8284714D01*
X2831802Y-8171135D01*
X2929099Y-8030177D01*
X2989835Y-7870029D01*
X3010480Y-7700000D01*
X2989835Y-7529971D01*
X2929099Y-7369823D01*
X2870425Y-7284820D01*
X2852900Y-7228581D01*
X2852900Y-6371521D01*
X10799500Y-6371521D01*
X10814352Y-6465303D01*
X10871948Y-6578339D01*
X10871950Y-6578342D01*
X10961658Y-6668050D01*
X11074696Y-6725646D01*
X11168481Y-6740500D01*
X12831518Y-6740499D01*
X12831521Y-6740499D01*
X12925303Y-6725647D01*
X12979707Y-6697925D01*
X13038342Y-6668050D01*
X13128050Y-6578342D01*
X13185646Y-6465304D01*
X13200500Y-6371519D01*
X13200499Y-4708482D01*
X13200499Y-4708480D01*
X13200499Y-4708478D01*
X13185647Y-4614696D01*
X13128051Y-4501660D01*
X13128050Y-4501658D01*
X13038342Y-4411950D01*
X12925304Y-4354354D01*
X12925303Y-4354353D01*
X12925302Y-4354353D01*
X12831519Y-4339500D01*
X11168478Y-4339500D01*
X11074696Y-4354352D01*
X10961660Y-4411948D01*
X10871949Y-4501659D01*
X10814353Y-4614697D01*
X10799500Y-4708480D01*
X10799500Y-6371521D01*
X2852900Y-6371521D01*
X2852900Y-5111117D01*
X2852958Y-5107737D01*
X2855172Y-5042927D01*
X2849348Y-5019031D01*
X2845089Y-5001552D01*
X2843197Y-4991595D01*
X2837402Y-4949427D01*
X2829351Y-4930893D01*
X2823971Y-4914894D01*
X2819187Y-4895259D01*
X2798319Y-4858146D01*
X2793811Y-4849070D01*
X2776850Y-4810022D01*
X2776850Y-4810021D01*
X2764089Y-4794336D01*
X2754603Y-4780398D01*
X2744695Y-4762776D01*
X2744692Y-4762773D01*
X2714586Y-4732666D01*
X2707795Y-4725141D01*
X2680931Y-4692121D01*
X2664428Y-4680472D01*
X2651515Y-4669596D01*
X2136919Y-4155000D01*
X13634357Y-4155000D01*
X13654885Y-4376536D01*
X13690485Y-4501658D01*
X13715772Y-4590530D01*
X13814940Y-4789686D01*
X13814941Y-4789687D01*
X13814942Y-4789689D01*
X13949019Y-4967236D01*
X14113438Y-5117124D01*
X14302599Y-5234247D01*
X14510060Y-5314618D01*
X14510063Y-5314619D01*
X14728755Y-5355500D01*
X14728757Y-5355500D01*
X14951243Y-5355500D01*
X14951245Y-5355500D01*
X15169936Y-5314619D01*
X15169937Y-5314618D01*
X15169940Y-5314618D01*
X15377401Y-5234247D01*
X15566562Y-5117124D01*
X15730981Y-4967236D01*
X15865058Y-4789689D01*
X15964229Y-4590528D01*
X16025115Y-4376536D01*
X16045643Y-4155000D01*
X16025115Y-3933464D01*
X15964229Y-3719472D01*
X15865058Y-3520311D01*
X15730981Y-3342764D01*
X15566562Y-3192876D01*
X15377401Y-3075753D01*
X15377399Y-3075752D01*
X15169936Y-2995380D01*
X14951245Y-2954500D01*
X14951243Y-2954500D01*
X14728757Y-2954500D01*
X14728755Y-2954500D01*
X14510063Y-2995380D01*
X14302600Y-3075752D01*
X14113436Y-3192877D01*
X13949020Y-3342763D01*
X13814940Y-3520313D01*
X13715772Y-3719469D01*
X13715771Y-3719472D01*
X13654885Y-3933464D01*
X13634357Y-4155000D01*
X2136919Y-4155000D01*
X751919Y-2770000D01*
X10794357Y-2770000D01*
X10814885Y-2991536D01*
X10872171Y-3192877D01*
X10875772Y-3205530D01*
X10974940Y-3404686D01*
X10974941Y-3404687D01*
X10974942Y-3404689D01*
X11109019Y-3582236D01*
X11273438Y-3732124D01*
X11462599Y-3849247D01*
X11670060Y-3929618D01*
X11670063Y-3929619D01*
X11888755Y-3970500D01*
X11888757Y-3970500D01*
X12111243Y-3970500D01*
X12111245Y-3970500D01*
X12329936Y-3929619D01*
X12329937Y-3929618D01*
X12329940Y-3929618D01*
X12537401Y-3849247D01*
X12726562Y-3732124D01*
X12890981Y-3582236D01*
X13025058Y-3404689D01*
X13124229Y-3205528D01*
X13185115Y-2991536D01*
X13205643Y-2770000D01*
X13185115Y-2548464D01*
X13124229Y-2334472D01*
X13025058Y-2135311D01*
X12890981Y-1957764D01*
X12726562Y-1807876D01*
X12537401Y-1690753D01*
X12537399Y-1690752D01*
X12329936Y-1610380D01*
X12111245Y-1569500D01*
X12111243Y-1569500D01*
X11888757Y-1569500D01*
X11888755Y-1569500D01*
X11670063Y-1610380D01*
X11462600Y-1690752D01*
X11273436Y-1807877D01*
X11109020Y-1957763D01*
X10974940Y-2135313D01*
X10881968Y-2322026D01*
X10875771Y-2334472D01*
X10814885Y-2548464D01*
X10794357Y-2770000D01*
X751919Y-2770000D01*
X-633081Y-1385000D01*
X13634357Y-1385000D01*
X13654885Y-1606536D01*
X13712171Y-1807877D01*
X13715772Y-1820530D01*
X13814940Y-2019686D01*
X13814941Y-2019687D01*
X13814942Y-2019689D01*
X13949019Y-2197236D01*
X14113438Y-2347124D01*
X14302599Y-2464247D01*
X14394891Y-2500001D01*
X14510063Y-2544619D01*
X14728755Y-2585500D01*
X14728757Y-2585500D01*
X14951243Y-2585500D01*
X14951245Y-2585500D01*
X15169936Y-2544619D01*
X15169937Y-2544618D01*
X15169940Y-2544618D01*
X15377401Y-2464247D01*
X15566562Y-2347124D01*
X15730981Y-2197236D01*
X15865058Y-2019689D01*
X15964229Y-1820528D01*
X16025115Y-1606536D01*
X16045643Y-1385000D01*
X16025115Y-1163464D01*
X15964229Y-949472D01*
X15865058Y-750311D01*
X15730981Y-572764D01*
X15566562Y-422876D01*
X15377401Y-305753D01*
X15377399Y-305752D01*
X15169936Y-225380D01*
X14951245Y-184500D01*
X14951243Y-184500D01*
X14728757Y-184500D01*
X14728755Y-184500D01*
X14510063Y-225380D01*
X14302600Y-305752D01*
X14113436Y-422877D01*
X13949020Y-572763D01*
X13814940Y-750313D01*
X13715772Y-949469D01*
X13715771Y-949472D01*
X13654885Y-1163464D01*
X13634357Y-1385000D01*
X-633081Y-1385000D01*
X-2018081Y0D01*
X10794357Y0D01*
X10814885Y-221536D01*
X10872171Y-422877D01*
X10875772Y-435530D01*
X10974940Y-634686D01*
X10974941Y-634687D01*
X10974942Y-634689D01*
X11109019Y-812236D01*
X11273438Y-962124D01*
X11462599Y-1079247D01*
X11670060Y-1159618D01*
X11670063Y-1159619D01*
X11888755Y-1200500D01*
X11888757Y-1200500D01*
X12111243Y-1200500D01*
X12111245Y-1200500D01*
X12329936Y-1159619D01*
X12329937Y-1159618D01*
X12329940Y-1159618D01*
X12537401Y-1079247D01*
X12726562Y-962124D01*
X12890981Y-812236D01*
X13025058Y-634689D01*
X13124229Y-435528D01*
X13185115Y-221536D01*
X13205643Y0D01*
X13185115Y221536D01*
X13124229Y435528D01*
X13025058Y634689D01*
X12890981Y812236D01*
X12726562Y962124D01*
X12537401Y1079247D01*
X12329940Y1159618D01*
X12329937Y1159618D01*
X12329936Y1159619D01*
X12111245Y1200500D01*
X12111243Y1200500D01*
X11888757Y1200500D01*
X11888755Y1200500D01*
X11670063Y1159619D01*
X11670060Y1159618D01*
X11462599Y1079247D01*
X11273438Y962124D01*
X11109019Y812236D01*
X10997311Y664310D01*
X10974940Y634686D01*
X10925212Y534818D01*
X10875771Y435528D01*
X10814885Y221536D01*
X10794357Y0D01*
X-2018081Y0D01*
X-2075236Y57155D01*
X-2094242Y83820D01*
X-2103510Y115225D01*
X-2110164Y170027D01*
X-2170901Y330178D01*
X-2268197Y471134D01*
X-2396402Y584715D01*
X-2548058Y664309D01*
X-2548060Y664310D01*
X-2714361Y705300D01*
X-2885639Y705300D01*
X-3051940Y664310D01*
X-3108384Y634686D01*
X-3203600Y584714D01*
X-3211407Y577798D01*
X-3241950Y559333D01*
X-3277056Y552900D01*
X-6848100Y552900D01*
X-6897600Y566163D01*
X-6933837Y602400D01*
X-6947100Y651900D01*
X-6947100Y1385000D01*
X13634357Y1385000D01*
X13654885Y1163464D01*
X13701099Y1001037D01*
X13715772Y949469D01*
X13814940Y750313D01*
X13902258Y634686D01*
X13920854Y610060D01*
X13949020Y572763D01*
X14113436Y422877D01*
X14302600Y305752D01*
X14510063Y225380D01*
X14728755Y184500D01*
X14728757Y184500D01*
X14951243Y184500D01*
X14951245Y184500D01*
X15169936Y225380D01*
X15377399Y305752D01*
X15377401Y305753D01*
X15566562Y422876D01*
X15730981Y572764D01*
X15865058Y750311D01*
X15964229Y949472D01*
X16025115Y1163464D01*
X16045643Y1385000D01*
X16025115Y1606536D01*
X15964229Y1820528D01*
X15865058Y2019689D01*
X15730981Y2197236D01*
X15566562Y2347124D01*
X15377401Y2464247D01*
X15169940Y2544618D01*
X15169937Y2544618D01*
X15169936Y2544619D01*
X14951245Y2585500D01*
X14951243Y2585500D01*
X14728757Y2585500D01*
X14728755Y2585500D01*
X14510063Y2544619D01*
X14510060Y2544618D01*
X14302599Y2464247D01*
X14113438Y2347124D01*
X13949019Y2197236D01*
X13814942Y2019689D01*
X13814940Y2019686D01*
X13716571Y1822134D01*
X13715771Y1820528D01*
X13654885Y1606536D01*
X13634357Y1385000D01*
X-6947100Y1385000D01*
X-6947100Y2770000D01*
X10794357Y2770000D01*
X10814885Y2548464D01*
X10875772Y2334469D01*
X10974940Y2135313D01*
X11109020Y1957763D01*
X11273436Y1807877D01*
X11462600Y1690752D01*
X11670063Y1610380D01*
X11888755Y1569500D01*
X11888757Y1569500D01*
X12111243Y1569500D01*
X12111245Y1569500D01*
X12329936Y1610380D01*
X12537399Y1690752D01*
X12605836Y1733126D01*
X12726562Y1807876D01*
X12890981Y1957764D01*
X13025058Y2135311D01*
X13124229Y2334472D01*
X13185115Y2548464D01*
X13205643Y2770000D01*
X13185115Y2991536D01*
X13124229Y3205528D01*
X13025058Y3404689D01*
X12890981Y3582236D01*
X12726562Y3732124D01*
X12537401Y3849247D01*
X12329940Y3929618D01*
X12329937Y3929618D01*
X12329936Y3929619D01*
X12111245Y3970500D01*
X12111243Y3970500D01*
X11888757Y3970500D01*
X11888755Y3970500D01*
X11670063Y3929619D01*
X11670060Y3929618D01*
X11462599Y3849247D01*
X11273438Y3732124D01*
X11109019Y3582236D01*
X10974942Y3404689D01*
X10974940Y3404686D01*
X10944106Y3342763D01*
X10875771Y3205528D01*
X10815979Y2995380D01*
X10814885Y2991535D01*
X10794357Y2770000D01*
X-6947100Y2770000D01*
X-6947100Y4155000D01*
X13634357Y4155000D01*
X13654885Y3933464D01*
X13699628Y3776207D01*
X13715772Y3719469D01*
X13814940Y3520313D01*
X13949020Y3342763D01*
X14113436Y3192877D01*
X14302600Y3075752D01*
X14510063Y2995380D01*
X14728755Y2954500D01*
X14728757Y2954500D01*
X14951243Y2954500D01*
X14951245Y2954500D01*
X15169936Y2995380D01*
X15377399Y3075752D01*
X15525796Y3167635D01*
X15566562Y3192876D01*
X15730981Y3342764D01*
X15865058Y3520311D01*
X15964229Y3719472D01*
X16025115Y3933464D01*
X16045643Y4155000D01*
X16025115Y4376536D01*
X15964229Y4590528D01*
X15865058Y4789689D01*
X15730981Y4967236D01*
X15566562Y5117124D01*
X15377401Y5234247D01*
X15169940Y5314618D01*
X15169937Y5314618D01*
X15169936Y5314619D01*
X14951245Y5355500D01*
X14951243Y5355500D01*
X14728757Y5355500D01*
X14728755Y5355500D01*
X14510063Y5314619D01*
X14510060Y5314618D01*
X14302599Y5234247D01*
X14113438Y5117124D01*
X13949019Y4967236D01*
X13888820Y4887519D01*
X13814940Y4789686D01*
X13716571Y4592134D01*
X13715771Y4590528D01*
X13654885Y4376536D01*
X13634357Y4155000D01*
X-6947100Y4155000D01*
X-6947100Y4460972D01*
X11274527Y4460972D01*
X11347519Y4409864D01*
X11553670Y4313734D01*
X11773398Y4254858D01*
X12000000Y4235033D01*
X12226601Y4254858D01*
X12446329Y4313734D01*
X12652480Y4409864D01*
X12725472Y4460972D01*
X12000000Y5186446D01*
X11274527Y4460972D01*
X-6947100Y4460972D01*
X-6947100Y5540000D01*
X10695034Y5540000D01*
X10714858Y5313398D01*
X10773734Y5093670D01*
X10869864Y4887519D01*
X10920972Y4814527D01*
X11646446Y5540000D01*
X12353554Y5540000D01*
X13079026Y4814527D01*
X13130135Y4887519D01*
X13226265Y5093670D01*
X13285141Y5313398D01*
X13304966Y5540000D01*
X13285141Y5766601D01*
X13226265Y5986329D01*
X13130135Y6192480D01*
X13079026Y6265471D01*
X12353554Y5540000D01*
X11646446Y5540000D01*
X10920972Y6265472D01*
X10869864Y6192480D01*
X10773734Y5986329D01*
X10714858Y5766601D01*
X10695034Y5540000D01*
X-6947100Y5540000D01*
X-6947100Y6528581D01*
X-6929575Y6584820D01*
X-6905963Y6619026D01*
X11274527Y6619026D01*
X11999999Y5893554D01*
X12725471Y6619026D01*
X12652480Y6670135D01*
X12446329Y6766265D01*
X12226601Y6825141D01*
X12000000Y6844966D01*
X11773398Y6825141D01*
X11553670Y6766265D01*
X11347519Y6670135D01*
X11274527Y6619026D01*
X-6905963Y6619026D01*
X-6870901Y6669821D01*
X-6810164Y6829973D01*
X-6789519Y7000000D01*
X-6810164Y7170026D01*
X-6821532Y7200000D01*
X-6870901Y7330177D01*
X-6870901Y7330178D01*
X-6968197Y7471134D01*
X-7096402Y7584715D01*
X-7248058Y7664309D01*
X-7248060Y7664310D01*
X-7414361Y7705300D01*
X-7585639Y7705300D01*
X-7751940Y7664310D01*
X-7903599Y7584714D01*
X-8031802Y7471135D01*
X-8129099Y7330177D01*
X-8189835Y7170029D01*
X-8210480Y7000000D01*
X-8189835Y6829971D01*
X-8129217Y6670135D01*
X-8129098Y6669821D01*
X-8070425Y6584820D01*
X-8052900Y6528581D01*
X-8052900Y651900D01*
X-8066163Y602400D01*
X-8102400Y566163D01*
X-8151900Y552900D01*
X-8814977Y552900D01*
X-8868169Y568404D01*
X-8904701Y610060D01*
X-8912897Y627637D01*
X-9038399Y806873D01*
X-9038402Y806877D01*
X-9193123Y961598D01*
X-9372361Y1087102D01*
X-9372363Y1087103D01*
X-9572172Y1180276D01*
X-9613829Y1216807D01*
X-9629333Y1270000D01*
X-9613829Y1323193D01*
X-9572172Y1359724D01*
X-9372363Y1452896D01*
X-9193126Y1578399D01*
X-9038399Y1733126D01*
X-8912896Y1912363D01*
X-8820426Y2110665D01*
X-8763792Y2322026D01*
X-8744723Y2540000D01*
X-8763792Y2757973D01*
X-8820426Y2969334D01*
X-8912896Y3167635D01*
X-8930571Y3192877D01*
X-9038402Y3346877D01*
X-9193123Y3501598D01*
X-9372361Y3627102D01*
X-9372363Y3627103D01*
X-9570665Y3719573D01*
X-9570666Y3719573D01*
X-9570670Y3719575D01*
X-9782023Y3776207D01*
X-10000000Y3795277D01*
X-10217977Y3776207D01*
X-10429330Y3719575D01*
X-10627638Y3627102D01*
X-10806877Y3501598D01*
X-10961598Y3346877D01*
X-11087102Y3167638D01*
X-11179575Y2969330D01*
X-11236207Y2757977D01*
X-11255277Y2540000D01*
X-11236207Y2322023D01*
X-11201061Y2190858D01*
X-11201061Y2139614D01*
X-11226682Y2095235D01*
X-11883129Y1438788D01*
X-11885532Y1436467D01*
X-11932923Y1392209D01*
X-11952250Y1360425D01*
X-11955046Y1355827D01*
X-11960748Y1347448D01*
X-11986472Y1313529D01*
X-11993885Y1294729D01*
X-12001392Y1279615D01*
X-12011894Y1262347D01*
X-12023383Y1221338D01*
X-12026605Y1211757D01*
X-12042230Y1172138D01*
X-12044296Y1152030D01*
X-12047448Y1135448D01*
X-12052900Y1115993D01*
X-12052900Y1073423D01*
X-12053419Y1063298D01*
X-12057773Y1020946D01*
X-12054340Y1001037D01*
X-12052900Y984213D01*
X-12052900Y773826D01*
X-12069585Y718825D01*
X-12114014Y682362D01*
X-12171214Y676728D01*
X-12221904Y703823D01*
X-12701183Y1183103D01*
X-12703532Y1185533D01*
X-12747790Y1232922D01*
X-12747791Y1232923D01*
X-12784177Y1255049D01*
X-12792539Y1260740D01*
X-12826471Y1286472D01*
X-12845268Y1293884D01*
X-12860390Y1301396D01*
X-12877652Y1311894D01*
X-12914213Y1322137D01*
X-12918648Y1323380D01*
X-12928253Y1326610D01*
X-12967862Y1342230D01*
X-12987970Y1344296D01*
X-13004545Y1347446D01*
X-13024006Y1352900D01*
X-13024007Y1352900D01*
X-13066577Y1352900D01*
X-13076700Y1353418D01*
X-13091649Y1354955D01*
X-13119053Y1357773D01*
X-13119053Y1357772D01*
X-13119054Y1357773D01*
X-13138965Y1354339D01*
X-13155787Y1352900D01*
X-13272944Y1352900D01*
X-13308050Y1359333D01*
X-13338593Y1377798D01*
X-13346399Y1384714D01*
X-13498058Y1464309D01*
X-13498060Y1464310D01*
X-13664361Y1505300D01*
X-13835639Y1505300D01*
X-14001940Y1464310D01*
X-14153599Y1384714D01*
X-14281802Y1271135D01*
X-14379099Y1130177D01*
X-14439835Y970029D01*
X-14460480Y800000D01*
X-14439835Y629971D01*
X-14379596Y471134D01*
X-14379098Y469821D01*
X-14365476Y450087D01*
X-14347951Y393847D01*
X-14365476Y337609D01*
X-14379099Y317874D01*
X-14439835Y157726D01*
X-14460480Y-12303D01*
X-21694700Y-12303D01*
X-21694700Y2952174D01*
X-19500000Y2952174D01*
X-19493598Y2892623D01*
X-19443353Y2757910D01*
X-19357188Y2642811D01*
X-19242089Y2556646D01*
X-19107376Y2506401D01*
X-19047826Y2500000D01*
X-17750001Y2500000D01*
X-17750000Y2500001D01*
X-17250000Y2500001D01*
X-17249999Y2500000D01*
X-15952174Y2500000D01*
X-15892623Y2506401D01*
X-15757910Y2556646D01*
X-15642811Y2642811D01*
X-15556646Y2757910D01*
X-15506401Y2892623D01*
X-15500000Y2952174D01*
X-15500000Y3749999D01*
X-15500001Y3750000D01*
X-17249999Y3750000D01*
X-17250000Y3749999D01*
X-17250000Y2500001D01*
X-17750000Y2500001D01*
X-17750000Y3749999D01*
X-17750001Y3750000D01*
X-19499999Y3750000D01*
X-19500000Y3749999D01*
X-19500000Y2952174D01*
X-21694700Y2952174D01*
X-21694700Y4250001D01*
X-19500000Y4250001D01*
X-19499999Y4250000D01*
X-17750001Y4250000D01*
X-17750000Y4250001D01*
X-17250000Y4250001D01*
X-17249999Y4250000D01*
X-15500001Y4250000D01*
X-15500000Y4250001D01*
X-15500000Y5047826D01*
X-15506401Y5107376D01*
X-15556646Y5242089D01*
X-15642811Y5357188D01*
X-15757910Y5443353D01*
X-15892623Y5493598D01*
X-15952174Y5500000D01*
X-17249999Y5500000D01*
X-17250000Y5499999D01*
X-17250000Y4250001D01*
X-17750000Y4250001D01*
X-17750000Y5499999D01*
X-17750001Y5500000D01*
X-19047826Y5500000D01*
X-19107376Y5493598D01*
X-19242089Y5443353D01*
X-19357188Y5357188D01*
X-19443353Y5242089D01*
X-19493598Y5107376D01*
X-19500000Y5047826D01*
X-19500000Y4250001D01*
X-21694700Y4250001D01*
X-21694700Y4896016D01*
X-21694380Y4903971D01*
X-21686371Y5003326D01*
X-21683822Y5019031D01*
X-21660957Y5111931D01*
X-21655927Y5127022D01*
X-21618475Y5215070D01*
X-21611090Y5229164D01*
X-21569087Y5295705D01*
X-21555375Y5312864D01*
X-19668239Y7200000D01*
X-18605300Y7200000D01*
X-18586134Y6968695D01*
X-18529157Y6743700D01*
X-18435924Y6531151D01*
X-18308979Y6336847D01*
X-18151784Y6166087D01*
X-17968626Y6023530D01*
X-17764501Y5913063D01*
X-17544981Y5837702D01*
X-17316049Y5799500D01*
X-17083953Y5799500D01*
X-17083951Y5799500D01*
X-16931329Y5824968D01*
X-16855018Y5837702D01*
X-16635498Y5913063D01*
X-16431373Y6023530D01*
X-16248217Y6166086D01*
X-16091021Y6336846D01*
X-15964073Y6531156D01*
X-15870844Y6743695D01*
X-15813866Y6968696D01*
X-15794700Y7200000D01*
X-15813866Y7431303D01*
X-15813866Y7431305D01*
X-15870843Y7656300D01*
X-15870844Y7656304D01*
X-15964073Y7868843D01*
X-15964074Y7868844D01*
X-15964076Y7868849D01*
X-16091021Y8063153D01*
X-16248216Y8233913D01*
X-16431374Y8376470D01*
X-16635497Y8486936D01*
X-16855019Y8562298D01*
X-17083951Y8600500D01*
X-17316049Y8600500D01*
X-17544981Y8562298D01*
X-17764503Y8486936D01*
X-17968626Y8376470D01*
X-18151784Y8233913D01*
X-18308979Y8063153D01*
X-18435924Y7868849D01*
X-18529157Y7656300D01*
X-18586134Y7431305D01*
X-18605300Y7200000D01*
X-19668239Y7200000D01*
X-17168239Y9700000D01*
X-16105300Y9700000D01*
X-16086134Y9468695D01*
X-16029157Y9243700D01*
X-15935924Y9031151D01*
X-15808979Y8836847D01*
X-15651784Y8666087D01*
X-15567517Y8600500D01*
X-15468626Y8523530D01*
X-15264501Y8413063D01*
X-15044981Y8337702D01*
X-14816049Y8299500D01*
X-14583953Y8299500D01*
X-14583951Y8299500D01*
X-14431329Y8324967D01*
X-14355018Y8337702D01*
X-14135498Y8413063D01*
X-13931373Y8523530D01*
X-13748217Y8666086D01*
X-13591021Y8836846D01*
X-13464073Y9031156D01*
X-13370844Y9243695D01*
X-13313866Y9468696D01*
X-13294700Y9700000D01*
X-13313866Y9931303D01*
X-13313866Y9931305D01*
X-13370843Y10156300D01*
X-13370844Y10156304D01*
X-13464073Y10368843D01*
X-13464074Y10368844D01*
X-13464076Y10368849D01*
X-13591021Y10563153D01*
X-13748216Y10733913D01*
X-13931374Y10876470D01*
X-14135497Y10986936D01*
X-14355019Y11062298D01*
X-14583951Y11100500D01*
X-14816049Y11100500D01*
X-15044981Y11062298D01*
X-15264503Y10986936D01*
X-15468626Y10876470D01*
X-15651784Y10733913D01*
X-15808979Y10563153D01*
X-15935924Y10368849D01*
X-16029157Y10156300D01*
X-16086134Y9931305D01*
X-16105300Y9700000D01*
X-17168239Y9700000D01*
X-14438012Y12430227D01*
X11510878Y12430227D01*
X11541381Y12153004D01*
X11611926Y11883166D01*
X11721002Y11626489D01*
X11866297Y11388415D01*
X12044697Y11174044D01*
X12252414Y10987928D01*
X12485021Y10834037D01*
X12737541Y10715661D01*
X13004625Y10635308D01*
X13223003Y10603169D01*
X13280550Y10594700D01*
X13489627Y10594700D01*
X13489628Y10594700D01*
X13541760Y10598515D01*
X13698159Y10609962D01*
X13970377Y10670602D01*
X13970381Y10670603D01*
X13970383Y10670604D01*
X14230880Y10770235D01*
X14230883Y10770236D01*
X14474095Y10906734D01*
X14694844Y11077190D01*
X14888417Y11277966D01*
X15050701Y11504798D01*
X15178225Y11752833D01*
X15178226Y11752835D01*
X15268277Y12016797D01*
X15318935Y12291058D01*
X15329121Y12569772D01*
X15298618Y12846998D01*
X15228075Y13116829D01*
X15118996Y13373514D01*
X14973705Y13611581D01*
X14795301Y13825957D01*
X14587584Y14012072D01*
X14354982Y14165960D01*
X14102452Y14284341D01*
X13835378Y14364691D01*
X13559450Y14405300D01*
X13350372Y14405300D01*
X13141844Y14390038D01*
X12869617Y14329396D01*
X12609120Y14229765D01*
X12365905Y14093266D01*
X12365904Y14093265D01*
X12145155Y13922809D01*
X11951582Y13722033D01*
X11789298Y13495201D01*
X11661774Y13247166D01*
X11661774Y13247165D01*
X11571723Y12983203D01*
X11571722Y12983198D01*
X11521065Y12708944D01*
X11510878Y12430227D01*
X-14438012Y12430227D01*
X-12012867Y14855372D01*
X-11995708Y14869084D01*
X-11929166Y14911088D01*
X-11915072Y14918473D01*
X-11827022Y14955926D01*
X-11811931Y14960956D01*
X-11719031Y14983821D01*
X-11703326Y14986370D01*
X-11699194Y14986703D01*
X-11603956Y14994380D01*
X-11596003Y14994700D01*
X-11551645Y14994700D01*
X21951645Y14994700D01*
X21995140Y14994700D01*
X22004843Y14994223D01*
G37*
G04 #@! TD.AperFunction*
M02*
